1900 0 1 0           
15 SolidWorks 2022 14 ACIS 27.0.2 NT 24 Fri May  5 21:59:33 2023 
1 9.9999999999999995e-07 1e-10 
-0 body $1 -1 -1 $-1 $2 $-1 $-1 F #
-1 name_attrib-gen-attrib $-1 -1 $-1 $-1 $0 2 1 1 1 1 1 1 1 1 1 1 1 1 1 0 1 1 1 @3 CPC #
-2 lump $3 -1 -1 $-1 $-1 $4 $0 F #
-3 rgb_color-st-attrib $-1 -1 $-1 $-1 $2 2 1 2 1 1 1 1 1 1 1 1 1 1 1 0 1 1 1 1 1 1 #
-4 shell $-1 -1 -1 $-1 $-1 $-1 $5 $-1 $2 F #
-5 face $6 -1 -1 $-1 $7 $8 $4 $-1 $9 forward single F F #
-6 integer_attrib-name_attrib-gen-attrib $-1 -1 $-1 $-1 $5 2 1 2 1 1 1 1 1 1 1 1 1 1 1 0 1 1 1 @10 曲面-旋转5 0 #
-7 face $10 -1 -1 $-1 $-1 $11 $4 $-1 $12 forward single F F #
-8 loop $-1 -1 -1 $-1 $-1 $13 $5 F unknown #
-9 spline-surface $-1 -1 -1 $-1 forward { exactsur full nurbs 3 3 both open open none none 32 2 
	0 3 0.0091736069863655369 1 0.018280780544567898 1 0.027322329712733909 1 0.036299051389746047 1 
	0.062848043012204674 1 0.097385424255482425 1 0.15558546162966075 1 0.20334829700881935 1 0.24929078769607727 1 
	0.30075029721747654 1 0.35007168698922075 1 0.39741467729569513 1 0.44292493062629906 1 0.48673556583559763 1 
	0.53487960722523131 1 0.58112864357444283 1 0.62563353382192122 1 0.66853170941562201 1 0.7099486829387468 1 
	0.75491498337477803 1 0.79830123411875487 1 0.84024354056558004 1 0.88086626716914351 1 0.92028341298398619 1 
	0.96279351950647241 1 0.97530157061584821 1 0.98358063004679197 1 0.98770263549888371 1 0.99181311934815675 1 
	0.99591220127989943 1 1 3 
	0 3 1 3 
	59.939928881527578 120.81971784954683 7.3405242045883231e-15 1 
	59.96733730932398 120.44670754910356 7.3438807689253762e-15 1 
	60.021955678561127 119.70338821425509 7.3505695900314676e-15 1 
	60.100068686265018 118.59217404714535 7.3601356745171017e-15 1 
	60.175057078900629 117.48879107983178 7.3693191040185416e-15 1 
	60.293644643654716 115.67561788568266 7.3838418921780167e-15 1 
	60.46596471118427 112.82426789327965 7.4049450140909095e-15 1 
	60.716971816029293 107.96727950514439 7.4356845188420801e-15 1 
	60.934744405348098 102.24288702283498 7.4623539692872069e-15 1 
	61.069217445757388 96.050859314104542 7.4788221671380906e-15 1 
	61.108927742631273 90.132331887060346 7.4836852759340649e-15 1 
	61.052125217647259 84.150334782971612 7.476728972893547e-15 1 
	60.889071580279378 78.113166879832249 7.4567606613843531e-15 1 
	60.631151000825767 72.322104113385123 7.4251745001781413e-15 1 
	60.285820175863741 66.760698466488478 7.3828836712344749e-15 1 
	59.840593993986104 61.173632554641834 7.3283591893811662e-15 1 
	59.287966235960468 55.56583178473128 7.2606818078825577e-15 1 
	58.619913342317894 49.942099538377917 7.1788689240965019e-15 1 
	57.868954426186946 44.544707820211215 7.0869029808034094e-15 1 
	57.041209595191837 39.357975831959493 6.985533475024513e-15 1 
	56.106524961261265 34.17032763714063 6.8710676205089828e-15 1 
	55.058045845137272 28.984101046788609 6.7426659611555719e-15 1 
	53.888379386412169 23.801893270210783 6.5994231326807975e-15 1 
	52.645235284105681 18.819161972675705 6.4471818881039409e-15 1 
	51.332951626103558 14.021773542935968 6.28647348996937e-15 1 
	49.906409676591387 9.2329503008891525 6.1117724867374171e-15 1 
	48.719888498946943 5.5698118433056596 5.9664655505051346e-15 1 
	47.884440657524031 3.1280822777389607 5.8641526980198187e-15 1 
	47.549661542198955 2.1692790950145522 5.8231540808193954e-15 1 
	47.32536923955702 1.5345519732487565 5.7956861957690124e-15 1 
	47.156650199452763 1.0609376212164117 5.775024072527122e-15 1 
	46.987303742157287 0.58902828543376151 5.7542851128397383e-15 1 
	46.873567091642613 0.27521748244662786 5.7403563903398838e-15 1 
	46.81677714267741 0.11852832898795149 5.7334016274174857e-15 1 
	59.939928881527599 120.81971784954683 -119.87985776305594 0.33333333333333343 
	59.967337309324002 120.44670754910356 -119.93467461864874 0.33333333333333343 
	60.021955678561142 119.70338821425509 -120.04391135712302 0.33333333333333343 
	60.10006868626504 118.59217404714535 -120.20013737253082 0.33333333333333343 
	60.17505707890065 117.48879107983178 -120.35011415780201 0.33333333333333343 
	60.293644643654737 115.67561788568267 -120.58728928731017 0.33333333333333343 
	60.465964711184284 112.82426789327967 -120.93192942236927 0.33333333333333343 
	60.716971816029307 107.96727950514438 -121.43394363205928 0.33333333333333343 
	60.93474440534812 102.24288702283498 -121.86948881069686 0.33333333333333343 
	61.069217445757403 96.050859314104542 -122.13843489151539 0.33333333333333343 
	61.108927742631295 90.132331887060346 -122.21785548526313 0.33333333333333343 
	61.052125217647273 84.150334782971612 -122.10425043529507 0.33333333333333343 
	60.889071580279399 78.113166879832249 -121.77814316055925 0.33333333333333343 
	60.631151000825781 72.322104113385123 -121.26230200165199 0.33333333333333343 
	60.285820175863755 66.760698466488478 -120.57164035172791 0.33333333333333343 
	59.840593993986118 61.173632554641841 -119.68118798797261 0.33333333333333343 
	59.287966235960482 55.56583178473128 -118.57593247192129 0.33333333333333343 
	58.619913342317908 49.942099538377917 -117.23982668463609 0.33333333333333343 
	57.86895442618696 44.544707820211215 -115.73790885237418 0.33333333333333343 
	57.041209595191852 39.357975831959493 -114.0824191903839 0.33333333333333343 
	56.106524961261279 34.17032763714063 -112.21304992252271 0.33333333333333343 
	55.058045845137286 28.984101046788609 -110.11609169027471 0.33333333333333343 
	53.888379386412183 23.801893270210787 -107.77675877282446 0.33333333333333343 
	52.645235284105688 18.819161972675705 -105.29047056821146 0.33333333333333343 
	51.332951626103565 14.021773542935968 -102.66590325220717 0.33333333333333343 
	49.906409676591409 9.2329503008891525 -99.812819353182817 0.33333333333333343 
	48.719888498946958 5.5698118433056596 -97.439776997893915 0.33333333333333343 
	47.884440657524046 3.1280822777389607 -95.768881315048077 0.33333333333333343 
	47.549661542198976 2.1692790950145522 -95.099323084397909 0.33333333333333343 
	47.325369239557034 1.5345519732487565 -94.650738479114025 0.33333333333333343 
	47.156650199452777 1.0609376212164117 -94.313300398905511 0.33333333333333343 
	46.987303742157302 0.58902828543376151 -93.974607484314561 0.33333333333333343 
	46.873567091642627 0.27521748244662786 -93.747134183285212 0.33333333333333343 
	46.816777142677424 0.11852832898795149 -93.633554285354805 0.33333333333333343 
	-59.939928881528374 120.81971784954641 -119.87985776305595 0.33333333333333343 
	-59.967337309324776 120.44670754910315 -119.93467461864876 0.33333333333333343 
	-60.021955678561916 119.70338821425466 -120.04391135712306 0.33333333333333343 
	-60.100068686265807 118.59217404714494 -120.20013737253082 0.33333333333333343 
	-60.175057078901403 117.48879107983137 -120.35011415780204 0.33333333333333343 
	-60.293644643655483 115.67561788568226 -120.58728928731021 0.33333333333333343 
	-60.465964711185023 112.82426789327924 -120.93192942236929 0.33333333333333343 
	-60.716971816030018 107.96727950514395 -121.43394363205933 0.33333333333333343 
	-60.934744405348773 102.24288702283455 -121.86948881069688 0.33333333333333343 
	-61.069217445758021 96.050859314104116 -122.13843489151543 0.33333333333333343 
	-61.108927742631863 90.132331887059934 -122.21785548526314 0.33333333333333343 
	-61.052125217647806 84.1503347829712 -122.10425043529507 0.33333333333333343 
	-60.889071580279882 78.113166879831823 -121.77814316055927 0.33333333333333343 
	-60.631151000826236 72.322104113384697 -121.26230200165202 0.33333333333333343 
	-60.285820175864174 66.760698466488066 -120.57164035172794 0.33333333333333343 
	-59.840593993986495 61.173632554641422 -119.68118798797262 0.33333333333333343 
	-59.28796623596083 55.565831784730875 -118.57593247192133 0.33333333333333343 
	-58.619913342318213 49.942099538377519 -117.2398266846361 0.33333333333333343 
	-57.86895442618723 44.544707820210817 -115.73790885237419 0.33333333333333343 
	-57.041209595192079 39.357975831959102 -114.08241919038394 0.33333333333333343 
	-56.106524961261464 34.170327637140254 -112.21304992252274 0.33333333333333343 
	-55.058045845137443 28.984101046788236 -110.11609169027474 0.33333333333333343 
	-53.888379386412304 23.80189327021041 -107.77675877282448 0.33333333333333343 
	-52.645235284105787 18.819161972675342 -105.29047056821149 0.33333333333333343 
	-51.332951626103629 14.021773542935614 -102.6659032522072 0.33333333333333343 
	-49.90640967659143 9.2329503008888114 -99.812819353182817 0.33333333333333343 
	-48.719888498946965 5.5698118433053256 -97.439776997893915 0.33333333333333343 
	-47.884440657524038 3.1280822777386321 -95.768881315048077 0.33333333333333343 
	-47.549661542198955 2.1692790950142262 -95.099323084397909 0.33333333333333343 
	-47.325369239557013 1.5345519732484318 -94.650738479114054 0.33333333333333343 
	-47.156650199452756 1.0609376212160881 -94.313300398905511 0.33333333333333343 
	-46.98730374215728 0.58902828543343921 -93.974607484314575 0.33333333333333343 
	-46.873567091642592 0.27521748244630628 -93.747134183285226 0.33333333333333343 
	-46.816777142677388 0.11852832898763031 -93.633554285354819 0.33333333333333343 
	-59.939928881528402 120.81971784954641 -1.4681048409176646e-14 1 
	-59.967337309324805 120.44670754910315 -1.4687761537850752e-14 1 
	-60.021955678561945 119.70338821425466 -1.4701139180062938e-14 1 
	-60.100068686265828 118.59217404714494 -1.4720271349034203e-14 1 
	-60.175057078901432 117.48879107983137 -1.4738638208037083e-14 1 
	-60.293644643655504 115.67561788568224 -1.4767683784356037e-14 1 
	-60.465964711185045 112.82426789327923 -1.4809890028181819e-14 1 
	-60.716971816030039 107.96727950514396 -1.4871369037684157e-14 1 
	-60.934744405348802 102.24288702283455 -1.4924707938574414e-14 1 
	-61.069217445758049 96.050859314104116 -1.4957644334276178e-14 1 
	-61.108927742631892 90.132331887059934 -1.496737055186813e-14 1 
	-61.052125217647834 84.1503347829712 -1.4953457945787094e-14 1 
	-60.889071580279911 78.113166879831823 -1.4913521322768706e-14 1 
	-60.631151000826264 72.322104113384697 -1.4850349000356283e-14 1 
	-60.285820175864202 66.760698466488066 -1.4765767342468947e-14 1 
	-59.840593993986523 61.173632554641422 -1.4656718378762336e-14 1 
	-59.287966235960852 55.565831784730875 -1.4521363615765115e-14 1 
	-58.619913342318235 49.942099538377512 -1.4357737848193004e-14 1 
	-57.868954426187251 44.544707820210817 -1.4173805961606819e-14 1 
	-57.041209595192107 39.357975831959102 -1.3971066950049029e-14 1 
	-56.106524961261499 34.170327637140254 -1.3742135241017966e-14 1 
	-55.058045845137471 28.984101046788233 -1.3485331922311144e-14 1 
	-53.888379386412332 23.80189327021041 -1.3198846265361595e-14 1 
	-52.645235284105816 18.819161972675342 -1.289436377620788e-14 1 
	-51.332951626103657 14.021773542935616 -1.257294697993874e-14 1 
	-49.906409676591451 9.2329503008888114 -1.2223544973474834e-14 1 
	-48.719888498946986 5.5698118433053256 -1.1932931101010269e-14 1 
	-47.884440657524053 3.1280822777386326 -1.1728305396039637e-14 1 
	-47.549661542198969 2.1692790950142262 -1.1646308161638791e-14 1 
	-47.325369239557034 1.5345519732484318 -1.1591372391538025e-14 1 
	-47.15665019945277 1.0609376212160881 -1.1550048145054244e-14 1 
	-46.987303742157295 0.58902828543343921 -1.1508570225679475e-14 1 
	-46.873567091642613 0.27521748244630628 -1.1480712780679768e-14 1 
	-46.81677714267741 0.11852832898763031 -1.1466803254834971e-14 1 
	0 
	0 
	0 
	30 0.0091736069863655369 0.018280780544567898 0.027322329712733909 0.036299051389746047 0.062848043012204674 0.097385424255482425 0.15558546162966075 0.20334829700881935 0.24929078769607727 0.30075029721747654 0.35007168698922075 0.39741467729569513 0.44292493062629906 0.48673556583559763 0.53487960722523131 0.58112864357444283 0.62563353382192122 0.66853170941562201 0.7099486829387468 0.75491498337477803 0.79830123411875487 0.84024354056558004 0.88086626716914351 0.92028341298398619 0.96279351950647241 0.97530157061584821 0.98358063004679197 0.98770263549888371 0.99181311934815675 0.99591220127989943 
	0 
	0 
	0 
	F 1 F 0 F 1 F 0 } I I I I #
-10 integer_attrib-name_attrib-gen-attrib $-1 -1 $-1 $-1 $7 2 1 2 1 1 1 1 1 1 1 1 1 1 1 0 1 1 1 @10 曲面-旋转5 0 #
-11 loop $-1 -1 -1 $-1 $-1 $14 $7 F unknown #
-12 spline-surface $-1 -1 -1 $-1 forward { exactsur full nurbs 3 3 both open open none none 32 2 
	0 3 0.0091736069863655369 1 0.018280780544567898 1 0.027322329712733909 1 0.036299051389746047 1 
	0.062848043012204674 1 0.097385424255482425 1 0.15558546162966075 1 0.20334829700881935 1 0.24929078769607727 1 
	0.30075029721747654 1 0.35007168698922075 1 0.39741467729569513 1 0.44292493062629906 1 0.48673556583559763 1 
	0.53487960722523131 1 0.58112864357444283 1 0.62563353382192122 1 0.66853170941562201 1 0.7099486829387468 1 
	0.75491498337477803 1 0.79830123411875487 1 0.84024354056558004 1 0.88086626716914351 1 0.92028341298398619 1 
	0.96279351950647241 1 0.97530157061584821 1 0.98358063004679197 1 0.98770263549888371 1 0.99181311934815675 1 
	0.99591220127989943 1 1 3 
	0 3 1 3 
	-59.939928881528402 120.81971784954641 0 1 
	-59.967337309324805 120.44670754910315 0 1 
	-60.021955678561945 119.70338821425466 0 1 
	-60.100068686265828 118.59217404714494 0 1 
	-60.175057078901432 117.48879107983137 0 1 
	-60.293644643655504 115.67561788568224 0 1 
	-60.465964711185045 112.82426789327923 0 1 
	-60.716971816030039 107.96727950514396 0 1 
	-60.934744405348802 102.24288702283455 0 1 
	-61.069217445758049 96.050859314104116 0 1 
	-61.108927742631892 90.132331887059934 0 1 
	-61.052125217647834 84.1503347829712 0 1 
	-60.889071580279911 78.113166879831823 0 1 
	-60.631151000826264 72.322104113384697 0 1 
	-60.285820175864202 66.760698466488066 0 1 
	-59.840593993986523 61.173632554641422 0 1 
	-59.287966235960852 55.565831784730875 0 1 
	-58.619913342318235 49.942099538377512 0 1 
	-57.868954426187251 44.544707820210817 0 1 
	-57.041209595192107 39.357975831959102 0 1 
	-56.106524961261499 34.170327637140254 0 1 
	-55.058045845137471 28.984101046788233 0 1 
	-53.888379386412332 23.80189327021041 0 1 
	-52.645235284105816 18.819161972675342 0 1 
	-51.332951626103657 14.021773542935616 0 1 
	-49.906409676591451 9.2329503008888114 0 1 
	-48.719888498946986 5.5698118433053256 0 1 
	-47.884440657524053 3.1280822777386326 0 1 
	-47.549661542198969 2.1692790950142262 0 1 
	-47.325369239557034 1.5345519732484318 0 1 
	-47.15665019945277 1.0609376212160881 0 1 
	-46.987303742157295 0.58902828543343921 0 1 
	-46.873567091642613 0.27521748244630628 0 1 
	-46.81677714267741 0.11852832898763031 0 1 
	-59.939928881528409 120.81971784954641 119.87985776305594 0.33333333333333343 
	-59.967337309324812 120.44670754910315 119.93467461864874 0.33333333333333343 
	-60.021955678561952 119.70338821425466 120.04391135712304 0.33333333333333343 
	-60.100068686265828 118.59217404714494 120.20013737253082 0.33333333333333343 
	-60.175057078901439 117.48879107983137 120.35011415780204 0.33333333333333343 
	-60.293644643655504 115.67561788568226 120.58728928731018 0.33333333333333343 
	-60.465964711185045 112.82426789327924 120.93192942236929 0.33333333333333343 
	-60.716971816030039 107.96727950514395 121.43394363205933 0.33333333333333343 
	-60.934744405348809 102.24288702283455 121.86948881069686 0.33333333333333343 
	-61.069217445758049 96.050859314104116 122.13843489151542 0.33333333333333343 
	-61.108927742631899 90.132331887059934 122.21785548526313 0.33333333333333343 
	-61.052125217647834 84.1503347829712 122.10425043529507 0.33333333333333343 
	-60.889071580279918 78.113166879831823 121.77814316055925 0.33333333333333343 
	-60.631151000826264 72.322104113384697 121.26230200165202 0.33333333333333343 
	-60.285820175864202 66.760698466488066 120.57164035172794 0.33333333333333343 
	-59.840593993986531 61.173632554641422 119.68118798797261 0.33333333333333343 
	-59.287966235960852 55.565831784730875 118.57593247192131 0.33333333333333343 
	-58.619913342318235 49.942099538377519 117.23982668463609 0.33333333333333343 
	-57.868954426187251 44.544707820210817 115.73790885237418 0.33333333333333343 
	-57.041209595192107 39.357975831959102 114.08241919038392 0.33333333333333343 
	-56.106524961261499 34.170327637140254 112.21304992252271 0.33333333333333343 
	-55.058045845137471 28.984101046788236 110.11609169027471 0.33333333333333343 
	-53.888379386412325 23.80189327021041 107.77675877282446 0.33333333333333343 
	-52.645235284105816 18.819161972675342 105.29047056821146 0.33333333333333343 
	-51.33295162610365 14.021773542935614 102.66590325220717 0.33333333333333343 
	-49.906409676591451 9.2329503008888114 99.812819353182817 0.33333333333333343 
	-48.719888498946986 5.5698118433053256 97.439776997893915 0.33333333333333343 
	-47.88444065752406 3.1280822777386321 95.768881315048048 0.33333333333333343 
	-47.549661542198976 2.1692790950142262 95.099323084397909 0.33333333333333343 
	-47.325369239557034 1.5345519732484318 94.650738479114025 0.33333333333333343 
	-47.156650199452777 1.0609376212160881 94.313300398905511 0.33333333333333343 
	-46.987303742157302 0.58902828543343921 93.974607484314561 0.33333333333333343 
	-46.873567091642613 0.27521748244630628 93.747134183285212 0.33333333333333343 
	-46.81677714267741 0.11852832898763031 93.633554285354805 0.33333333333333343 
	59.939928881527564 120.81971784954683 119.87985776305598 0.33333333333333343 
	59.967337309323966 120.44670754910356 119.93467461864878 0.33333333333333343 
	60.02195567856112 119.70338821425509 120.04391135712306 0.33333333333333343 
	60.100068686265004 118.59217404714535 120.20013737253083 0.33333333333333343 
	60.175057078900615 117.48879107983178 120.35011415780204 0.33333333333333343 
	60.293644643654702 115.67561788568267 120.58728928731021 0.33333333333333343 
	60.465964711184256 112.82426789327967 120.93192942236929 0.33333333333333343 
	60.716971816029286 107.96727950514438 121.43394363205933 0.33333333333333343 
	60.934744405348084 102.24288702283498 121.86948881069691 0.33333333333333343 
	61.069217445757374 96.050859314104542 122.13843489151542 0.33333333333333343 
	61.108927742631259 90.132331887060346 122.21785548526317 0.33333333333333343 
	61.052125217647244 84.150334782971612 122.10425043529509 0.33333333333333343 
	60.889071580279364 78.113166879832249 121.7781431605593 0.33333333333333343 
	60.63115100082576 72.322104113385123 121.26230200165202 0.33333333333333343 
	60.285820175863741 66.760698466488478 120.57164035172794 0.33333333333333343 
	59.84059399398609 61.173632554641841 119.68118798797262 0.33333333333333343 
	59.287966235960454 55.56583178473128 118.57593247192131 0.33333333333333343 
	58.619913342317879 49.942099538377917 117.23982668463613 0.33333333333333343 
	57.868954426186939 44.544707820211215 115.73790885237419 0.33333333333333343 
	57.04120959519183 39.357975831959493 114.08241919038392 0.33333333333333343 
	56.10652496126125 34.17032763714063 112.21304992252271 0.33333333333333343 
	55.058045845137251 28.984101046788609 110.11609169027471 0.33333333333333343 
	53.888379386412154 23.801893270210787 107.77675877282446 0.33333333333333343 
	52.645235284105667 18.819161972675705 105.29047056821146 0.33333333333333343 
	51.332951626103544 14.021773542935968 102.66590325220717 0.33333333333333343 
	49.906409676591373 9.2329503008891525 99.812819353182817 0.33333333333333343 
	48.719888498946936 5.5698118433056596 97.439776997893915 0.33333333333333343 
	47.884440657524017 3.1280822777389607 95.768881315048077 0.33333333333333343 
	47.54966154219894 2.1692790950145522 95.099323084397909 0.33333333333333343 
	47.325369239557006 1.5345519732487565 94.650738479114025 0.33333333333333343 
	47.156650199452756 1.0609376212164117 94.313300398905511 0.33333333333333343 
	46.98730374215728 0.58902828543376151 93.974607484314561 0.33333333333333343 
	46.873567091642599 0.27521748244662786 93.747134183285212 0.33333333333333343 
	46.816777142677395 0.11852832898795149 93.633554285354805 0.33333333333333343 
	59.939928881527578 120.81971784954683 7.3405242045883231e-15 1 
	59.96733730932398 120.44670754910356 7.3438807689253762e-15 1 
	60.021955678561127 119.70338821425509 7.3505695900314676e-15 1 
	60.100068686265018 118.59217404714535 7.3601356745171017e-15 1 
	60.175057078900629 117.48879107983178 7.3693191040185416e-15 1 
	60.293644643654716 115.67561788568266 7.3838418921780167e-15 1 
	60.46596471118427 112.82426789327965 7.4049450140909095e-15 1 
	60.716971816029293 107.96727950514439 7.4356845188420801e-15 1 
	60.934744405348098 102.24288702283498 7.4623539692872069e-15 1 
	61.069217445757388 96.050859314104542 7.4788221671380906e-15 1 
	61.108927742631273 90.132331887060346 7.4836852759340649e-15 1 
	61.052125217647259 84.150334782971612 7.476728972893547e-15 1 
	60.889071580279378 78.113166879832249 7.4567606613843531e-15 1 
	60.631151000825767 72.322104113385123 7.4251745001781413e-15 1 
	60.285820175863741 66.760698466488478 7.3828836712344749e-15 1 
	59.840593993986104 61.173632554641834 7.3283591893811662e-15 1 
	59.287966235960468 55.56583178473128 7.2606818078825577e-15 1 
	58.619913342317894 49.942099538377917 7.1788689240965019e-15 1 
	57.868954426186946 44.544707820211215 7.0869029808034094e-15 1 
	57.041209595191837 39.357975831959493 6.985533475024513e-15 1 
	56.106524961261265 34.17032763714063 6.8710676205089828e-15 1 
	55.058045845137272 28.984101046788609 6.7426659611555719e-15 1 
	53.888379386412169 23.801893270210783 6.5994231326807975e-15 1 
	52.645235284105681 18.819161972675705 6.4471818881039409e-15 1 
	51.332951626103558 14.021773542935968 6.28647348996937e-15 1 
	49.906409676591387 9.2329503008891525 6.1117724867374171e-15 1 
	48.719888498946943 5.5698118433056596 5.9664655505051346e-15 1 
	47.884440657524031 3.1280822777389607 5.8641526980198187e-15 1 
	47.549661542198955 2.1692790950145522 5.8231540808193954e-15 1 
	47.32536923955702 1.5345519732487565 5.7956861957690124e-15 1 
	47.156650199452763 1.0609376212164117 5.775024072527122e-15 1 
	46.987303742157287 0.58902828543376151 5.7542851128397383e-15 1 
	46.873567091642613 0.27521748244662786 5.7403563903398838e-15 1 
	46.81677714267741 0.11852832898795149 5.7334016274174857e-15 1 
	0 
	0 
	0 
	30 0.0091736069863655369 0.018280780544567898 0.027322329712733909 0.036299051389746047 0.062848043012204674 0.097385424255482425 0.15558546162966075 0.20334829700881935 0.24929078769607727 0.30075029721747654 0.35007168698922075 0.39741467729569513 0.44292493062629906 0.48673556583559763 0.53487960722523131 0.58112864357444283 0.62563353382192122 0.66853170941562201 0.7099486829387468 0.75491498337477803 0.79830123411875487 0.84024354056558004 0.88086626716914351 0.92028341298398619 0.96279351950647241 0.97530157061584821 0.98358063004679197 0.98770263549888371 0.99181311934815675 0.99591220127989943 
	0 
	0 
	0 
	F 1 F 0 F 1 F 0 } I I I I #
-13 coedge $-1 -1 -1 $-1 $15 $16 $-1 $17 reversed $8 $18 #
-14 coedge $-1 -1 -1 $-1 $19 $20 $15 $21 reversed $11 $22 #
-15 coedge $-1 -1 -1 $-1 $23 $13 $14 $21 forward $8 $24 #
-16 coedge $-1 -1 -1 $-1 $13 $23 $25 $26 reversed $8 $27 #
-17 edge $-1 -1 -1 $-1 $28 -3.1415926535897931 $29 0 $13 $30 forward @7 unknown F #
-18 pcurve $-1 -1 -1 $-1 0 forward { exppc nubs 2 open 25 
	0 2 0.1308996938995747 2 0.26179938779914941 2 0.39269908169872414 2 0.52359877559829882 2 
	0.65449846949787349 2 0.78539816339744828 2 0.91629785729702296 2 1.0471975511965976 2 1.1780972450961724 2 
	1.308996938995747 2 1.4398966328953218 2 1.5707963267948966 2 1.7016960206944711 2 1.8325957145940459 2 
	1.9634954084936207 2 2.0943951023931953 2 2.2252947962927703 2 2.3561944901923448 2 2.4870941840919194 2 
	2.6179938779914944 2 2.7488935718910694 2 2.879793265790644 2 3.0106929596902186 2 3.1415926535897931 2 
	0 1 
	0 0.93938277039802409 
	0 0.93848823149627025 
	0 0.90960399047565388 
	0 0.88366349398948008 
	0 0.85771409925228226 
	0 0.83408931895952543 
	0 0.8332819838762402 
	0 0.78867513459481298 
	0 0.74721760475287369 
	0 0.74657271301565054 
	0 0.72625448696427797 
	0 0.70710678118654757 
	0 0.6879564635119666 
	0 0.66972712943168722 
	0 0.66911707601143466 
	0 0.6339745962155614 
	0 0.60000585479808466 
	0 0.59945618368982911 
	0 0.58245945726000681 
	0 0.56582624879366661 
	0 0.54919241436444599 
	0 0.53277173140761924 
	0 0.53223168816195199 
	0 0.50000000000000011 
	0 0.46776831183804818 
	0 0.46722826859238104 
	0 0.45080758563555423 
	0 0.43417375120633367 
	0 0.41754054273999336 
	0 0.40054381631017105 
	0 0.39999414520191551 
	0 0.36602540378443876 
	0 0.33088292398856567 
	0 0.330272870568313 
	0 0.31204353648803362 
	0 0.29289321881345254 
	0 0.27374551303572214 
	0 0.25342728698434963 
	0 0.25278239524712665 
	0 0.21132486540518713 
	0 0.16671801612375972 
	0 0.1659106810404746 
	0 0.14228590074771771 
	0 0.11633650601051994 
	0 0.090396009524346177 
	0 0.061511768503729899 
	0 0.060617229601975985 
	0 1.2246467991473527e-16 
	0.001 
	0.013987660922949896 
	spline forward { ref 0 } I I I I 
	} 0 0 #
-19 coedge $-1 -1 -1 $-1 $25 $14 $-1 $31 reversed $11 $32 #
-20 coedge $-1 -1 -1 $-1 $14 $25 $-1 $33 forward $11 $34 #
-21 edge $-1 -1 -1 $-1 $28 0 $35 1 $15 $36 forward @7 unknown F #
-22 pcurve $-1 -1 -1 $-1 0 forward { exppc nubs 1 open 2 
	-1 1 -0 1 
	0.99999999999999878 1 
	0 1 
	0.001 
	-1 
	spline forward { ref 1 } I I I I 
	} 0 0 #
-23 coedge $-1 -1 -1 $-1 $16 $15 $-1 $37 forward $8 $38 #
-24 pcurve $-1 -1 -1 $-1 0 forward { exppc nubs 1 open 2 
	0 1 1 1 
	0 0 
	0.99999999999999878 0 
	0.001 
	-1 
	spline forward { ref 0 } I I I I 
	} 0 0 #
-25 coedge $-1 -1 -1 $-1 $20 $19 $16 $26 forward $11 $39 #
-26 edge $-1 -1 -1 $-1 $29 0 $40 1 $25 $41 forward @7 unknown F #
-27 pcurve $-1 -1 -1 $-1 0 forward { exppc nubs 1 open 2 
	-1 1 -0 1 
	0.99999999999999878 1 
	0 1 
	0.001 
	-1 
	spline forward { ref 0 } I I I I 
	} 0 0 #
-28 vertex $-1 -1 -1 $-1 $21 $42 #
-29 vertex $-1 -1 -1 $-1 $17 $43 #
-30 ellipse-curve $-1 -1 -1 $-1 -4.1444171619906873e-13 120.81971784954671 0 -3.430248998885767e-15 1 0 -59.939928881527983 -2.0816681711721685e-13 0 1 I I #
-31 edge $-1 -1 -1 $-1 $29 0 $28 3.1415926535897931 $19 $44 forward @7 unknown F #
-32 pcurve $-1 -1 -1 $-1 0 forward { exppc nubs 2 open 25 
	-3.1415926535897931 2 -3.0106929596902186 2 -2.879793265790644 2 -2.7488935718910694 2 -2.6179938779914944 2 
	-2.4870941840919194 2 -2.3561944901923448 2 -2.2252947962927703 2 -2.0943951023931957 2 -1.9634954084936209 2 
	-1.8325957145940461 2 -1.7016960206944713 2 -1.5707963267948966 2 -1.439896632895322 2 -1.3089969389957472 2 
	-1.1780972450961724 2 -1.0471975511965979 2 -0.91629785729702307 2 -0.78539816339744828 2 -0.65449846949787349 2 
	-0.5235987755982987 2 -0.39269908169872403 2 -0.26179938779914935 2 -0.13089969389957468 2 -0 2 
	0 1 
	0 0.93938277039802409 
	0 0.93848823149627025 
	0 0.90960399047565399 
	0 0.88366349398948019 
	0 0.85771409925228237 
	0 0.83408931895952554 
	0 0.83328198387624042 
	0 0.78867513459481298 
	0 0.74721760475287358 
	0 0.74657271301565042 
	0 0.72625448696427797 
	0 0.70710678118654757 
	0 0.6879564635119666 
	0 0.66972712943168711 
	0 0.66911707601143455 
	0 0.63397459621556151 
	0 0.60000585479808455 
	0 0.599456183689829 
	0 0.5824594572600067 
	0 0.5658262487936665 
	0 0.54919241436444599 
	0 0.53277173140761913 
	0 0.53223168816195188 
	0 0.5 
	0 0.46776831183804818 
	0 0.46722826859238092 
	0 0.45080758563555401 
	0 0.43417375120633356 
	0 0.41754054273999336 
	0 0.400543816310171 
	0 0.39999414520191545 
	0 0.36602540378443871 
	0 0.33088292398856561 
	0 0.33027287056831295 
	0 0.31204353648803357 
	0 0.29289321881345248 
	0 0.27374551303572209 
	0 0.25342728698434952 
	0 0.25278239524712653 
	0 0.21132486540518702 
	0 0.16671801612375969 
	0 0.1659106810404746 
	0 0.14228590074771769 
	0 0.1163365060105199 
	0 0.090396009524346121 
	0 0.061511768503729809 
	0 0.060617229601975894 
	0 0 
	0.001 
	0.013987660922949841 
	spline forward { ref 1 } I I I I 
	} 0 0 #
-33 edge $-1 -1 -1 $-1 $40 0 $35 3.1415926535897931 $20 $45 forward @7 unknown F #
-34 pcurve $-1 -1 -1 $-1 0 forward { exppc nubs 2 open 25 
	0 2 0.1308996938995747 2 0.26179938779914941 2 0.39269908169872414 2 0.52359877559829882 2 
	0.65449846949787349 2 0.78539816339744828 2 0.91629785729702296 2 1.0471975511965976 2 1.1780972450961724 2 
	1.308996938995747 2 1.4398966328953218 2 1.5707963267948966 2 1.7016960206944711 2 1.8325957145940459 2 
	1.9634954084936207 2 2.0943951023931953 2 2.2252947962927703 2 2.3561944901923448 2 2.4870941840919194 2 
	2.6179938779914944 2 2.7488935718910694 2 2.879793265790644 2 3.0106929596902186 2 3.1415926535897931 2 
	0.99999999999999878 2.0752443259781915e-31 
	1 0.060371132229873004 
	1 0.061511768503726368 
	0.99999999999999933 0.090396009524344623 
	0.99999999999999878 0.11633650601051997 
	0.99999999999999956 0.14228590074770964 
	1 0.16591068104045978 
	1 0.16693919402715537 
	0.99999999999999878 0.21132486540518713 
	1 0.25260515631573732 
	1 0.25342728698434946 
	0.99999999999999933 0.27374551303572214 
	0.99999999999999878 0.29289321881345254 
	0.99999999999999933 0.31204353648803351 
	0.99999999999999978 0.33027287056831278 
	0.99999999999999978 0.3310502093050865 
	0.99999999999999878 0.36602540378443871 
	0.99999999999999889 0.39984319490564313 
	0.99999999999999878 0.400543816310171 
	0.99999999999999933 0.4175405427399933 
	1 0.4341737512063335 
	0.99999999999999933 0.45080758563555401 
	0.99999999999999878 0.46722826859238087 
	0.99999999999999867 0.46791651155421421 
	0.99999999999999878 0.5 
	0.99999999999999856 0.53208348844578579 
	0.99999999999999867 0.53277173140761913 
	0.99999999999999933 0.54919241436444599 
	1 0.5658262487936665 
	0.99999999999999933 0.58245945726000659 
	0.99999999999999878 0.599456183689829 
	0.99999999999999889 0.60015680509435709 
	0.99999999999999878 0.63397459621556129 
	0.99999999999999967 0.66894979069491356 
	0.99999999999999967 0.66972712943168722 
	0.99999999999999933 0.6879564635119666 
	0.99999999999999878 0.70710678118654746 
	0.99999999999999933 0.72625448696427786 
	1 0.74657271301565042 
	1 0.74739484368426257 
	0.99999999999999878 0.78867513459481298 
	1 0.83306080597284493 
	1 0.83408931895954042 
	0.99999999999999933 0.85771409925229047 
	0.99999999999999889 0.88366349398948019 
	0.99999999999999956 0.90960399047565565 
	1 0.93848823149627369 
	0.99999999999999989 0.939628867770127 
	0.99999999999999878 1 
	0.001 
	0.013864612236897611 
	spline forward { ref 1 } I I I I 
	} 0 0 #
-35 vertex $-1 -1 -1 $-1 $21 $46 #
-36 intcurve-curve $-1 -1 -1 $-1 forward { exactcur full nubs 3 open 32 
	0 3 0.0091736069863655369 1 0.018280780544567898 1 0.027322329712733909 1 0.036299051389746047 1 
	0.062848043012204674 1 0.097385424255482425 1 0.15558546162966075 1 0.20334829700881935 1 0.24929078769607727 1 
	0.30075029721747654 1 0.35007168698922075 1 0.39741467729569513 1 0.44292493062629906 1 0.48673556583559763 1 
	0.53487960722523131 1 0.58112864357444283 1 0.62563353382192122 1 0.66853170941562201 1 0.7099486829387468 1 
	0.75491498337477803 1 0.79830123411875487 1 0.84024354056558004 1 0.88086626716914351 1 0.92028341298398619 1 
	0.96279351950647241 1 0.97530157061584821 1 0.98358063004679197 1 0.98770263549888371 1 0.99181311934815675 1 
	0.99591220127989943 1 1 3 
	59.939928881527571 120.81971784954692 7.3405242045883231e-15 
	59.96733730932398 120.44670754910356 7.3438807689253762e-15 
	60.021955678561127 119.70338821425509 7.3505695900314676e-15 
	60.100068686265018 118.59217404714535 7.3601356745171017e-15 
	60.175057078900629 117.48879107983178 7.3693191040185416e-15 
	60.293644643654716 115.67561788568266 7.3838418921780167e-15 
	60.46596471118427 112.82426789327965 7.4049450140909095e-15 
	60.716971816029293 107.96727950514439 7.4356845188420801e-15 
	60.934744405348098 102.24288702283498 7.4623539692872069e-15 
	61.069217445757388 96.050859314104542 7.4788221671380906e-15 
	61.108927742631273 90.132331887060346 7.4836852759340649e-15 
	61.052125217647259 84.150334782971612 7.476728972893547e-15 
	60.889071580279378 78.113166879832249 7.4567606613843531e-15 
	60.631151000825767 72.322104113385123 7.4251745001781413e-15 
	60.285820175863741 66.760698466488478 7.3828836712344749e-15 
	59.840593993986104 61.173632554641834 7.3283591893811662e-15 
	59.287966235960468 55.56583178473128 7.2606818078825577e-15 
	58.619913342317894 49.942099538377917 7.1788689240965019e-15 
	57.868954426186946 44.544707820211215 7.0869029808034094e-15 
	57.041209595191837 39.357975831959493 6.985533475024513e-15 
	56.106524961261265 34.17032763714063 6.8710676205089828e-15 
	55.058045845137272 28.984101046788609 6.7426659611555719e-15 
	53.888379386412169 23.801893270210783 6.5994231326807975e-15 
	52.645235284105681 18.819161972675705 6.4471818881039409e-15 
	51.332951626103558 14.021773542935968 6.28647348996937e-15 
	49.906409676591387 9.2329503008891525 6.1117724867374171e-15 
	48.719888498946943 5.5698118433056596 5.9664655505051346e-15 
	47.884440657524031 3.1280822777389607 5.8641526980198187e-15 
	47.549661542198955 2.1692790950145522 5.8231540808193954e-15 
	47.32536923955702 1.5345519732487565 5.7956861957690124e-15 
	47.156650199452763 1.0609376212164117 5.775024072527122e-15 
	46.987303742157287 0.58902828543376151 5.7542851128397383e-15 
	46.873567091642613 0.27521748244662786 5.7403563903398838e-15 
	46.81677714267741 0.11852832898811522 6.6085434516757757e-15 
	0 
	null_surface 
	null_surface 
	nullbs 
	nullbs 
	-1 
	-1 
	I I 
	0 
	0 
	30 0.0091736069863655369 0.018280780544567898 0.027322329712733909 0.036299051389746047 0.062848043012204674 0.097385424255482425 0.15558546162966075 0.20334829700881935 0.24929078769607727 0.30075029721747654 0.35007168698922075 0.39741467729569513 0.44292493062629906 0.48673556583559763 0.53487960722523131 0.58112864357444283 0.62563353382192122 0.66853170941562201 0.7099486829387468 0.75491498337477803 0.79830123411875487 0.84024354056558004 0.88086626716914351 0.92028341298398619 0.96279351950647241 0.97530157061584821 0.98358063004679197 0.98770263549888371 0.99181311934815675 0.99591220127989943 
	
	-1 
	none F F 1 F 0 } I I #
-37 edge $-1 -1 -1 $-1 $35 -3.1415926535897931 $40 0 $23 $47 forward @7 unknown F #
-38 pcurve $-1 -1 -1 $-1 0 forward { exppc nubs 2 open 25 
	-3.1415926535897931 2 -3.0106929596902186 2 -2.879793265790644 2 -2.7488935718910694 2 -2.6179938779914944 2 
	-2.4870941840919194 2 -2.3561944901923448 2 -2.2252947962927703 2 -2.0943951023931957 2 -1.9634954084936209 2 
	-1.8325957145940461 2 -1.7016960206944713 2 -1.5707963267948966 2 -1.439896632895322 2 -1.3089969389957472 2 
	-1.1780972450961724 2 -1.0471975511965979 2 -0.91629785729702307 2 -0.78539816339744828 2 -0.65449846949787349 2 
	-0.5235987755982987 2 -0.39269908169872403 2 -0.26179938779914935 2 -0.13089969389957468 2 0 2 
	0.99999999999999878 1.224646799147352e-16 
	0.99999999999999989 0.060371132229873031 
	1 0.061511768503726402 
	0.99999999999999944 0.090396009524344637 
	0.99999999999999878 0.11633650601051992 
	0.99999999999999956 0.14228590074770955 
	1 0.16591068104045967 
	1 0.16693919402715526 
	0.99999999999999878 0.21132486540518716 
	1 0.25260515631573749 
	1 0.25342728698434963 
	0.99999999999999944 0.27374551303572214 
	0.99999999999999878 0.29289321881345243 
	0.99999999999999922 0.3120435364880334 
	0.99999999999999978 0.33027287056831278 
	0.99999999999999978 0.3310502093050865 
	0.99999999999999878 0.36602540378443865 
	0.99999999999999889 0.39984319490564313 
	0.99999999999999878 0.400543816310171 
	0.99999999999999933 0.4175405427399933 
	1 0.43417375120633356 
	0.99999999999999933 0.45080758563555401 
	0.99999999999999878 0.46722826859238092 
	0.99999999999999867 0.46791651155421427 
	0.99999999999999878 0.50000000000000011 
	0.99999999999999867 0.53208348844578579 
	0.99999999999999878 0.53277173140761913 
	0.99999999999999933 0.54919241436444599 
	1 0.5658262487936665 
	0.99999999999999933 0.58245945726000681 
	0.99999999999999867 0.599456183689829 
	0.99999999999999878 0.60015680509435709 
	0.99999999999999878 0.6339745962155614 
	0.99999999999999978 0.66894979069491367 
	0.99999999999999978 0.66972712943168733 
	0.99999999999999933 0.68795646351196671 
	0.99999999999999878 0.70710678118654768 
	0.99999999999999933 0.72625448696427808 
	1 0.74657271301565065 
	1 0.74739484368426279 
	0.99999999999999878 0.78867513459481309 
	1 0.83306080597284493 
	1 0.83408931895954042 
	0.99999999999999944 0.85771409925229058 
	0.99999999999999878 0.88366349398948019 
	0.99999999999999922 0.90960399047565543 
	1 0.93848823149627381 
	1 0.93962886777012722 
	0.99999999999999878 1 
	0.001 
	0.013864612236897611 
	spline forward { ref 0 } I I I I 
	} 0 0 #
-39 pcurve $-1 -1 -1 $-1 0 forward { exppc nubs 1 open 2 
	0 1 1 1 
	0 0 
	0.99999999999999878 2.0752443259781915e-31 
	0.001 
	-1 
	spline forward { ref 1 } I I I I 
	} 0 0 #
-40 vertex $-1 -1 -1 $-1 $37 $48 #
-41 intcurve-curve $-1 -1 -1 $-1 forward { exactcur full nubs 3 open 32 
	0 3 0.0091736069863655369 1 0.018280780544567898 1 0.027322329712733909 1 0.036299051389746047 1 
	0.062848043012204674 1 0.097385424255482425 1 0.15558546162966075 1 0.20334829700881935 1 0.24929078769607727 1 
	0.30075029721747654 1 0.35007168698922075 1 0.39741467729569513 1 0.44292493062629906 1 0.48673556583559763 1 
	0.53487960722523131 1 0.58112864357444283 1 0.62563353382192122 1 0.66853170941562201 1 0.7099486829387468 1 
	0.75491498337477803 1 0.79830123411875487 1 0.84024354056558004 1 0.88086626716914351 1 0.92028341298398619 1 
	0.96279351950647241 1 0.97530157061584821 1 0.98358063004679197 1 0.98770263549888371 1 0.99181311934815675 1 
	0.99591220127989943 1 1 3 
	-59.939928881528402 120.81971784954649 0 
	-59.967337309324805 120.44670754910315 0 
	-60.021955678561945 119.70338821425466 0 
	-60.100068686265828 118.59217404714494 0 
	-60.175057078901432 117.48879107983137 0 
	-60.293644643655504 115.67561788568224 0 
	-60.465964711185045 112.82426789327923 0 
	-60.716971816030039 107.96727950514396 0 
	-60.934744405348802 102.24288702283455 0 
	-61.069217445758049 96.050859314104116 0 
	-61.108927742631892 90.132331887059934 0 
	-61.052125217647834 84.1503347829712 0 
	-60.889071580279911 78.113166879831823 0 
	-60.631151000826264 72.322104113384697 0 
	-60.285820175864202 66.760698466488066 0 
	-59.840593993986523 61.173632554641422 0 
	-59.287966235960852 55.565831784730875 0 
	-58.619913342318235 49.942099538377512 0 
	-57.868954426187251 44.544707820210817 0 
	-57.041209595192107 39.357975831959102 0 
	-56.106524961261499 34.170327637140254 0 
	-55.058045845137471 28.984101046788233 0 
	-53.888379386412332 23.80189327021041 0 
	-52.645235284105816 18.819161972675342 0 
	-51.332951626103657 14.021773542935616 0 
	-49.906409676591451 9.2329503008888114 0 
	-48.719888498946986 5.5698118433053256 0 
	-47.884440657524053 3.1280822777386326 0 
	-47.549661542198969 2.1692790950142262 0 
	-47.325369239557034 1.5345519732484318 0 
	-47.15665019945277 1.0609376212160881 0 
	-46.987303742157295 0.58902828543343921 0 
	-46.873567091642613 0.27521748244630628 0 
	-46.81677714267741 0.11852832898779403 0 
	0 
	null_surface 
	null_surface 
	nullbs 
	nullbs 
	-1 
	-1 
	I I 
	0 
	0 
	30 0.0091736069863655369 0.018280780544567898 0.027322329712733909 0.036299051389746047 0.062848043012204674 0.097385424255482425 0.15558546162966075 0.20334829700881935 0.24929078769607727 0.30075029721747654 0.35007168698922075 0.39741467729569513 0.44292493062629906 0.48673556583559763 0.53487960722523131 0.58112864357444283 0.62563353382192122 0.66853170941562201 0.7099486829387468 0.75491498337477803 0.79830123411875487 0.84024354056558004 0.88086626716914351 0.92028341298398619 0.96279351950647241 0.97530157061584821 0.98358063004679197 0.98770263549888371 0.99181311934815675 0.99591220127989943 
	
	-1 
	none F F 1 F 0 } I I #
-42 point $-1 -1 -1 $-1 59.939928881527571 120.81971784954692 7.3405242045883231e-15 #
-43 point $-1 -1 -1 $-1 -59.939928881528402 120.81971784954649 0 #
-44 ellipse-curve $-1 -1 -1 $-1 -4.1444171619906873e-13 120.81971784954671 0 -3.430248998885767e-15 1 0 -59.939928881527983 -2.0816681711721685e-13 0 1 I I #
-45 ellipse-curve $-1 -1 -1 $-1 -4.0658168185082396e-16 0.11852832898795462 0 -3.430248998885767e-15 1 0 -46.81677714267741 -1.6059744679941534e-13 0 1 I I #
-46 point $-1 -1 -1 $-1 46.81677714267741 0.11852832898811522 6.6085434516757757e-15 #
-47 ellipse-curve $-1 -1 -1 $-1 -4.0658168185082396e-16 0.11852832898795462 0 -3.430248998885767e-15 1 0 -46.81677714267741 -1.6059744679941534e-13 0 1 I I #
-48 point $-1 -1 -1 $-1 -46.81677714267741 0.11852832898779403 0 #
End-of-ACIS-data 