2000 0 1 0           
15 SolidWorks 2022 14 ACIS 27.0.2 NT 24 Thu May 18 14:32:36 2023 
1 9.9999999999999995e-07 1e-10 
-0 body $1 -1 -1 $-1 $2 $-1 $-1 F #
-1 name_attrib-gen-attrib $-1 -1 $-1 $-1 $0 2 1 1 1 1 1 1 1 1 1 1 1 1 1 0 1 1 1 @4 0x02 #
-2 lump $3 -1 -1 $-1 $-1 $4 $0 F #
-3 rgb_color-st-attrib $-1 -1 $-1 $-1 $2 2 1 2 1 1 1 1 1 1 1 1 1 1 1 0 1 1 1 0.792156862745098 0.81960784313725488 0.93333333333333335 #
-4 shell $-1 -1 -1 $-1 $-1 $-1 $5 $-1 $2 F #
-5 face $6 -1 -1 $-1 $7 $8 $4 $-1 $9 forward single F F #
-6 integer_attrib-name_attrib-gen-attrib $-1 -1 $-1 $-1 $5 2 1 2 1 1 1 1 1 1 1 1 1 1 1 0 1 1 1 @10 曲面-旋转1 0 #
-7 face $10 -1 -1 $-1 $11 $12 $4 $-1 $13 forward single F F #
-8 loop $-1 -1 -1 $-1 $-1 $14 $5 F unknown #
-9 spline-surface $-1 -1 -1 $-1 forward { exactsur full nurbs 3 3 both open open none none 34 2 
	0 3 0.048244352304270488 1 0.06724175316790082 1 0.081486092192804893 1 0.093281594486990027 1 
	0.10351804367161799 1 0.12859043932568237 1 0.16023087403789649 1 0.20222359845870375 1 0.24988308356024713 1 
	0.29363620397966506 1 0.33624470915334426 1 0.37878404677471589 1 0.42042850692399403 1 0.46189430268870302 1 
	0.50267891862651592 1 0.54262171321933472 1 0.58243507181438692 1 0.62149112076846724 1 0.66013820631187814 1 
	0.69783293626073606 1 0.73440265905893853 1 0.76941542933765938 1 0.80351306044091042 1 0.8364106831479462 1 
	0.86883243619326422 1 0.90317590037122053 1 0.93196234218226137 1 0.96366748707296179 1 0.98321308733511303 1 
	0.98842881204120692 1 0.99153312557708118 1 0.99521147634831442 1 1 3 
	0 3 1 3 
	-76.054333707200556 -5.2177060412009742e-13 -3.808379682123212e-13 1 
	-74.979820236517057 0.77021612981247856 -3.7545740004421e-13 1 
	-73.482190646309306 1.843723813368574 -3.6795810076081658e-13 1 
	-71.65638368169796 3.1292664360007612 -3.588154710005264e-13 1 
	-70.643552795835248 3.8344779360577381 -3.5374377504432179e-13 1 
	-69.825330475878474 4.3990226968423043 -3.496465709707451e-13 1 
	-68.76012874091164 5.1280753319417931 -3.4431263081629198e-13 1 
	-67.239777243953597 6.1549147606250703 -3.3669955281209608e-13 1 
	-64.982600416545509 7.6453876981749751 -3.2539686176288576e-13 1 
	-62.18309304447753 9.4373286241257297 -3.1137847980350442e-13 1 
	-59.06830185235679 11.351388472110663 -2.9578133114423497e-13 1 
	-55.901418825109175 13.211496535482997 -2.7992333543413797e-13 1 
	-52.820427258083448 14.939420365967731 -2.6449543657195533e-13 1 
	-49.755118551657148 16.575677940685285 -2.4914606878716593e-13 1 
	-46.68286899684086 18.130731574213261 -2.3376194507895079e-13 1 
	-43.619485490833156 19.59493306490101 -2.1842221763127405e-13 1 
	-40.564740632867732 20.966924598109149 -2.0312574774708059e-13 1 
	-37.518927957351295 22.245875120766669 -1.8787400528405785e-13 1 
	-34.485486126019552 23.429241957502644 -1.7268420915511913e-13 1 
	-31.454990747981139 24.519358535513508 -1.5750916723190376e-13 1 
	-28.450734866845146 25.5074007465435 -1.4246551817218653e-13 1 
	-25.484957418552039 26.39039176687173 -1.276145477866431e-13 1 
	-22.591216105774908 27.161955561674816 -1.1312429445889932e-13 1 
	-19.772376081492983 27.827094902629639 -9.9009105287746787e-14 1 
	-17.034122488240019 28.390512105868215 -8.5297448317358861e-14 1 
	-14.350749583662884 28.862709921372893 -7.1860603431313911e-14 1 
	-11.648259221386784 29.25866542510342 -5.8328028908408475e-14 1 
	-9.0469976414333679 29.560545350678531 -4.5302352045441758e-14 1 
	-6.4577706967513695 29.78562078312839 -3.2336937968585142e-14 1 
	-4.2680570300297171 29.914422860168578 -2.1372065052709832e-14 1 
	-2.7215704095081055 29.968082994409308 -1.3628116828872734e-14 1 
	-1.9581634276953035 29.985471969298622 -9.8053976003804029e-15 1 
	-1.6294280256843183 29.991579824474201 -8.1592728303796741e-15 1 
	-1.3123795624454266 29.996495104489686 -6.5716697750483688e-15 1 
	-1.0803720908044909 29.998733853562648 -5.409904891932361e-15 1 
	-0.94915799575270476 29.999999999999993 -4.7528573980614163e-15 1 
	-76.054333707201309 -5.2177060412010005e-13 152.10866741440142 0.33333333333333176 
	-74.97982023651781 0.77021612981247867 149.95964047303443 0.33333333333333176 
	-73.482190646310031 1.843723813368574 146.96438129261892 0.33333333333333176 
	-71.656383681698685 3.1292664360007612 143.3127673633962 0.33333333333333176 
	-70.643552795835944 3.8344779360577381 141.28710559167075 0.33333333333333176 
	-69.82533047587917 4.3990226968423043 139.6506609517572 0.33333333333333176 
	-68.760128740912336 5.1280753319417931 137.52025748182356 0.33333333333333176 
	-67.239777243954279 6.1549147606250703 134.47955448790745 0.33333333333333176 
	-64.982600416546163 7.6453876981749751 129.96520083309125 0.33333333333333176 
	-62.183093044478149 9.4373286241257297 124.36618608895526 0.33333333333333176 
	-59.068301852357386 11.351388472110663 118.13660370471378 0.33333333333333176 
	-55.901418825109744 13.211496535482997 111.80283765021851 0.33333333333333176 
	-52.820427258083974 14.939420365967733 105.64085451616701 0.33333333333333176 
	-49.755118551657652 16.575677940685285 99.510237103314395 0.33333333333333176 
	-46.682868996841329 18.130731574213261 93.36573799368179 0.33333333333333176 
	-43.619485490833597 19.59493306490101 87.238970981666355 0.33333333333333176 
	-40.564740632868144 20.966924598109149 81.129481265735492 0.33333333333333176 
	-37.518927957351671 22.245875120766669 75.03785591470259 0.33333333333333176 
	-34.4854861260199 23.429241957502644 68.97097225203909 0.33333333333333176 
	-31.454990747981451 24.519358535513508 62.909981495962249 0.33333333333333176 
	-28.45073486684543 25.5074007465435 56.901469733690234 0.33333333333333176 
	-25.484957418552295 26.39039176687173 50.969914837104007 0.33333333333333176 
	-22.591216105775132 27.161955561674816 45.182432211549724 0.33333333333333176 
	-19.772376081493181 27.827094902629636 39.544752162985866 0.33333333333333176 
	-17.03412248824019 28.390512105868215 34.068244976479924 0.33333333333333176 
	-14.350749583663028 28.862709921372893 28.701499167325636 0.33333333333333176 
	-11.648259221386899 29.25866542510342 23.296518442773415 0.33333333333333176 
	-9.0469976414334585 29.560545350678531 18.093995282866572 0.33333333333333176 
	-6.4577706967514343 29.78562078312839 12.915541393502561 0.33333333333333176 
	-4.2680570300297598 29.914422860168582 8.5361140600592478 0.33333333333333176 
	-2.7215704095081326 29.968082994409308 5.4431408190160164 0.33333333333333176 
	-1.9581634276953228 29.985471969298622 3.9163268553904098 0.33333333333333176 
	-1.6294280256843348 29.991579824474201 3.2588560513684377 0.33333333333333176 
	-1.31237956244544 29.996495104489686 2.624759124890653 0.33333333333333176 
	-1.0803720908045018 29.998733853562644 2.1607441816087807 0.33333333333333176 
	-0.94915799575271431 29.999999999999993 1.8983159915052077 0.33333333333333176 
	76.054333707200513 -1.2779694004496578e-28 152.10866741440185 0.33333333333333176 
	74.979820236517014 0.77021612981299292 149.95964047303485 0.33333333333333176 
	73.482190646309249 1.8437238133690783 146.96438129261929 0.33333333333333176 
	71.656383681697903 3.1292664360012528 143.3127673633966 0.33333333333333176 
	70.643552795835191 3.8344779360582235 141.28710559167115 0.33333333333333176 
	69.825330475878431 4.399022696842783 139.6506609517576 0.33333333333333176 
	68.760128740911568 5.1280753319422647 137.5202574818239 0.33333333333333176 
	67.239777243953526 6.1549147606255303 134.47955448790782 0.33333333333333176 
	64.982600416545424 7.6453876981754219 129.96520083309159 0.33333333333333176 
	62.183093044477431 9.4373286241261578 124.3661860889556 0.33333333333333176 
	59.06830185235669 11.35138847211107 118.13660370471409 0.33333333333333176 
	55.901418825109062 13.211496535483377 111.80283765021882 0.33333333333333176 
	52.820427258083313 14.939420365968093 105.64085451616728 0.33333333333333176 
	49.755118551657013 16.575677940685623 99.510237103314651 0.33333333333333176 
	46.682868996840718 18.130731574213581 93.365737993682046 0.33333333333333176 
	43.619485490833007 19.594933064901308 87.238970981666611 0.33333333333333176 
	40.564740632867569 20.966924598109426 81.129481265735706 0.33333333333333176 
	37.518927957351124 22.245875120766925 75.037855914702803 0.33333333333333176 
	34.485486126019381 23.429241957502878 68.970972252039289 0.33333333333333176 
	31.454990747980958 24.519358535513721 62.909981495962413 0.33333333333333176 
	28.450734866844957 25.507400746543698 56.901469733690398 0.33333333333333176 
	25.484957418551843 26.390391766871897 50.969914837104149 0.33333333333333176 
	22.591216105774709 27.161955561674972 45.182432211549845 0.33333333333333176 
	19.772376081492784 27.827094902629771 39.544752162985972 0.33333333333333176 
	17.03412248823982 28.390512105868332 34.06824497648001 0.33333333333333176 
	14.350749583662678 28.862709921372989 28.701499167325707 0.33333333333333176 
	11.648259221386576 29.258665425103501 23.296518442773475 0.33333333333333176 
	9.0469976414331601 29.560545350678595 18.093995282866619 0.33333333333333176 
	6.4577706967511608 29.785620783128437 12.915541393502597 0.33333333333333176 
	4.2680570300295093 29.914422860168607 8.5361140600592691 0.33333333333333176 
	2.7215704095078985 29.968082994409322 5.4431408190160315 0.33333333333333176 
	1.958163427695097 29.985471969298633 3.9163268553904205 0.33333333333333176 
	1.6294280256841116 29.991579824474211 3.2588560513684466 0.33333333333333176 
	1.3123795624452201 29.996495104489696 2.6247591248906601 0.33333333333333176 
	1.0803720908042846 29.998733853562655 2.1607441816087865 0.33333333333333176 
	0.94915799575249837 29.999999999999996 1.8983159915052128 0.33333333333333176 
	76.054333707200556 6.2216043673047273e-42 1.8627939267161526e-14 1 
	74.979820236517057 0.77021612981299292 1.8364759370658898e-14 1 
	73.482190646309292 1.8437238133690783 1.7997945913867673e-14 1 
	71.656383681697932 3.1292664360012528 1.7550752182853138e-14 1 
	70.64355279583522 3.8344779360582231 1.7302680162363269e-14 1 
	69.825330475878459 4.399022696842783 1.7102273493338144e-14 1 
	68.760128740911597 5.1280753319422647 1.6841374314303408e-14 1 
	67.239777243953554 6.1549147606255312 1.6468995595437717e-14 1 
	64.982600416545452 7.645387698175421 1.5916146720078785e-14 1 
	62.183093044477467 9.4373286241261578 1.5230465171600288e-14 1 
	59.068301852356718 11.35138847211107 1.4467561358911676e-14 1 
	55.90141882510909 13.211496535483379 1.3691898726393076e-14 1 
	52.820427258083342 14.939420365968093 1.2937273434241479e-14 1 
	49.755118551657041 16.575677940685623 1.2186489335096801e-14 1 
	46.682868996840739 18.130731574213581 1.1434005218399237e-14 1 
	43.619485490833029 19.594933064901308 1.0683692657360651e-14 1 
	40.56474063286759 20.966924598109426 9.9354959548567813e-15 1 
	37.518927957351146 22.245875120766925 9.1894870060820836e-15 1 
	34.485486126019389 23.429241957502878 8.4465080402540357e-15 1 
	31.454990747980972 24.519358535513721 7.7042507473449115e-15 1 
	28.450734866844972 25.507400746543695 6.9684202776143581e-15 1 
	25.484957418551858 26.3903917668719 6.2420143058072215e-15 1 
	22.59121610577472 27.161955561674972 5.5332520985566426e-15 1 
	19.772376081492794 27.827094902629774 4.8428354159475857e-15 1 
	17.034122488239827 28.390512105868332 4.1721567163014084e-15 1 
	14.350749583662685 28.862709921372993 3.514919908599564e-15 1 
	11.648259221386581 29.258665425103501 2.8530006742219637e-15 1 
	9.0469976414331654 29.560545350678595 2.2158753406949723e-15 1 
	6.4577706967511643 29.785620783128437 1.5816976426807991e-15 1 
	4.2680570300295111 29.914422860168607 1.0453724760808231e-15 1 
	2.7215704095078999 29.968082994409325 6.6659249813162357e-16 1 
	1.9581634276950979 29.985471969298636 4.7961171478686714e-16 1 
	1.6294280256841127 29.991579824474211 3.9909476321903185e-16 1 
	1.3123795624452208 29.996495104489696 3.2144028608301363e-16 1 
	1.0803720908042851 29.998733853562655 2.6461484457834531e-16 1 
	0.94915799575249893 30 2.3247666027670814e-16 1 
	0 
	0 
	0 
	32 0.048244352304270488 0.06724175316790082 0.081486092192804893 0.093281594486990027 0.10351804367161799 0.12859043932568237 0.16023087403789649 0.20222359845870375 0.24988308356024713 0.29363620397966506 0.33624470915334426 0.37878404677471589 0.42042850692399403 0.46189430268870302 0.50267891862651592 0.54262171321933472 0.58243507181438692 0.62149112076846724 0.66013820631187814 0.69783293626073606 0.73440265905893853 0.76941542933765938 0.80351306044091042 0.8364106831479462 0.86883243619326422 0.90317590037122053 0.93196234218226137 0.96366748707296179 0.98321308733511303 0.98842881204120692 0.99153312557708118 0.99521147634831442 
	0 
	0 
	0 
	F 1 F 0 F 1 F 0 } I I I I #
-10 integer_attrib-name_attrib-gen-attrib $-1 -1 $-1 $-1 $7 2 1 2 1 1 1 1 1 1 1 1 1 1 1 0 1 1 1 @10 曲面-旋转1 0 #
-11 face $15 -1 -1 $-1 $-1 $16 $4 $-1 $17 forward single F F #
-12 loop $-1 -1 -1 $-1 $-1 $18 $7 F unknown #
-13 spline-surface $-1 -1 -1 $-1 forward { exactsur full nurbs 3 3 both open open none none 34 2 
	0 3 0.048244352304270488 1 0.06724175316790082 1 0.081486092192804893 1 0.093281594486990027 1 
	0.10351804367161799 1 0.12859043932568237 1 0.16023087403789649 1 0.20222359845870375 1 0.24988308356024713 1 
	0.29363620397966506 1 0.33624470915334426 1 0.37878404677471589 1 0.42042850692399403 1 0.46189430268870302 1 
	0.50267891862651592 1 0.54262171321933472 1 0.58243507181438692 1 0.62149112076846724 1 0.66013820631187814 1 
	0.69783293626073606 1 0.73440265905893853 1 0.76941542933765938 1 0.80351306044091042 1 0.8364106831479462 1 
	0.86883243619326422 1 0.90317590037122053 1 0.93196234218226137 1 0.96366748707296179 1 0.98321308733511303 1 
	0.98842881204120692 1 0.99153312557708118 1 0.99521147634831442 1 1 3 
	0 3 1 3 
	76.054333707200556 0 0 1 
	74.979820236517057 0.77021612981299292 0 1 
	73.482190646309292 1.8437238133690783 0 1 
	71.656383681697932 3.1292664360012528 0 1 
	70.64355279583522 3.8344779360582231 0 1 
	69.825330475878459 4.399022696842783 0 1 
	68.760128740911597 5.1280753319422647 0 1 
	67.239777243953554 6.1549147606255312 0 1 
	64.982600416545452 7.645387698175421 0 1 
	62.183093044477467 9.4373286241261578 0 1 
	59.068301852356718 11.35138847211107 0 1 
	55.90141882510909 13.211496535483379 0 1 
	52.820427258083342 14.939420365968093 0 1 
	49.755118551657041 16.575677940685623 0 1 
	46.682868996840739 18.130731574213581 0 1 
	43.619485490833029 19.594933064901308 0 1 
	40.56474063286759 20.966924598109426 0 1 
	37.518927957351146 22.245875120766925 0 1 
	34.485486126019389 23.429241957502878 0 1 
	31.454990747980972 24.519358535513721 0 1 
	28.450734866844972 25.507400746543695 0 1 
	25.484957418551858 26.3903917668719 0 1 
	22.59121610577472 27.161955561674972 0 1 
	19.772376081492794 27.827094902629774 0 1 
	17.034122488239827 28.390512105868332 0 1 
	14.350749583662685 28.862709921372993 0 1 
	11.648259221386581 29.258665425103501 0 1 
	9.0469976414331654 29.560545350678595 0 1 
	6.4577706967511643 29.785620783128437 0 1 
	4.2680570300295111 29.914422860168607 0 1 
	2.7215704095078999 29.968082994409325 0 1 
	1.9581634276950979 29.985471969298636 0 1 
	1.6294280256841127 29.991579824474211 0 1 
	1.3123795624452208 29.996495104489696 0 1 
	1.0803720908042851 29.998733853562655 0 1 
	0.94915799575249893 30 0 1 
	76.054333707200556 0 -152.10866741440108 0.33333333333333343 
	74.979820236517057 0.77021612981299292 -149.95964047303409 0.33333333333333343 
	73.482190646309292 1.8437238133690785 -146.96438129261855 0.33333333333333343 
	71.656383681697932 3.1292664360012523 -143.31276736339586 0.33333333333333343 
	70.64355279583522 3.8344779360582231 -141.28710559167044 0.33333333333333343 
	69.825330475878459 4.399022696842783 -139.65066095175692 0.33333333333333343 
	68.760128740911597 5.1280753319422647 -137.52025748182319 0.33333333333333343 
	67.239777243953554 6.1549147606255312 -134.47955448790714 0.33333333333333343 
	64.982600416545452 7.645387698175421 -129.96520083309093 0.33333333333333343 
	62.183093044477467 9.4373286241261578 -124.36618608895498 0.33333333333333343 
	59.068301852356718 11.35138847211107 -118.13660370471351 0.33333333333333343 
	55.90141882510909 13.211496535483379 -111.80283765021824 0.33333333333333343 
	52.820427258083342 14.939420365968095 -105.64085451616675 0.33333333333333343 
	49.755118551657041 16.575677940685623 -99.510237103314168 0.33333333333333343 
	46.682868996840739 18.130731574213581 -93.365737993681591 0.33333333333333343 
	43.619485490833029 19.594933064901308 -87.238970981666185 0.33333333333333343 
	40.56474063286759 20.966924598109426 -81.129481265735294 0.33333333333333343 
	37.518927957351146 22.245875120766925 -75.037855914702419 0.33333333333333343 
	34.485486126019389 23.429241957502878 -68.970972252038933 0.33333333333333343 
	31.454990747980972 24.519358535513724 -62.909981495962093 0.33333333333333343 
	28.450734866844972 25.507400746543695 -56.901469733690114 0.33333333333333343 
	25.484957418551854 26.3903917668719 -50.969914837103879 0.33333333333333343 
	22.59121610577472 27.161955561674972 -45.182432211549617 0.33333333333333343 
	19.772376081492794 27.827094902629774 -39.544752162985773 0.33333333333333343 
	17.034122488239827 28.390512105868332 -34.068244976479839 0.33333333333333343 
	14.350749583662685 28.862709921372993 -28.701499167325562 0.33333333333333343 
	11.648259221386581 29.258665425103501 -23.296518442773362 0.33333333333333343 
	9.0469976414331654 29.560545350678595 -18.093995282866526 0.33333333333333343 
	6.4577706967511643 29.78562078312844 -12.915541393502529 0.33333333333333343 
	4.2680570300295111 29.91442286016861 -8.5361140600592265 0.33333333333333343 
	2.7215704095078999 29.968082994409325 -5.443140819016004 0.33333333333333343 
	1.9581634276950979 29.985471969298636 -3.9163268553904005 0.33333333333333343 
	1.6294280256841127 29.991579824474215 -3.2588560513684302 0.33333333333333343 
	1.3123795624452208 29.9964951044897 -2.6247591248906472 0.33333333333333343 
	1.0803720908042851 29.998733853562658 -2.1607441816087758 0.33333333333333343 
	0.94915799575249893 30 -1.8983159915052035 0.33333333333333343 
	-76.054333707200541 -5.2177060412009732e-13 -152.10866741440108 0.33333333333333343 
	-74.979820236517043 0.77021612981247856 -149.95964047303409 0.33333333333333343 
	-73.482190646309292 1.8437238133685743 -146.96438129261858 0.33333333333333343 
	-71.656383681697946 3.1292664360007607 -143.31276736339586 0.33333333333333343 
	-70.643552795835234 3.8344779360577386 -141.28710559167044 0.33333333333333343 
	-69.825330475878474 4.3990226968423043 -139.65066095175692 0.33333333333333343 
	-68.760128740911625 5.1280753319417931 -137.52025748182322 0.33333333333333343 
	-67.239777243953583 6.1549147606250703 -134.47955448790711 0.33333333333333343 
	-64.982600416545495 7.6453876981749751 -129.96520083309093 0.33333333333333343 
	-62.183093044477523 9.4373286241257297 -124.36618608895498 0.33333333333333343 
	-59.068301852356782 11.351388472110663 -118.13660370471351 0.33333333333333343 
	-55.901418825109161 13.211496535482995 -111.80283765021821 0.33333333333333343 
	-52.820427258083427 14.939420365967731 -105.64085451616677 0.33333333333333343 
	-49.755118551657148 16.575677940685285 -99.510237103314168 0.33333333333333343 
	-46.682868996840845 18.130731574213261 -93.365737993681591 0.33333333333333343 
	-43.619485490833142 19.59493306490101 -87.238970981666171 0.33333333333333343 
	-40.564740632867725 20.966924598109149 -81.129481265735308 0.33333333333333343 
	-37.518927957351288 22.245875120766669 -75.037855914702419 0.33333333333333343 
	-34.485486126019545 23.429241957502644 -68.970972252038919 0.33333333333333343 
	-31.454990747981132 24.519358535513508 -62.909981495962093 0.33333333333333343 
	-28.450734866845139 25.5074007465435 -56.901469733690114 0.33333333333333343 
	-25.484957418552032 26.390391766871726 -50.969914837103879 0.33333333333333343 
	-22.591216105774901 27.161955561674816 -45.182432211549617 0.33333333333333343 
	-19.772376081492979 27.827094902629639 -39.544752162985766 0.33333333333333343 
	-17.034122488240016 28.390512105868218 -34.068244976479839 0.33333333333333343 
	-14.35074958366288 28.862709921372897 -28.701499167325569 0.33333333333333343 
	-11.64825922138678 29.25866542510342 -23.296518442773362 0.33333333333333343 
	-9.0469976414333662 29.560545350678531 -18.09399528286653 0.33333333333333343 
	-6.4577706967513677 29.78562078312839 -12.915541393502529 0.33333333333333343 
	-4.2680570300297163 29.914422860168578 -8.5361140600592282 0.33333333333333343 
	-2.7215704095081046 29.968082994409308 -5.443140819016004 0.33333333333333343 
	-1.958163427695303 29.985471969298626 -3.9163268553904005 0.33333333333333343 
	-1.6294280256843179 29.991579824474204 -3.2588560513684302 0.33333333333333343 
	-1.3123795624454264 29.996495104489689 -2.6247591248906468 0.33333333333333343 
	-1.0803720908044907 29.998733853562648 -2.1607441816087753 0.33333333333333343 
	-0.94915799575270454 29.999999999999993 -1.8983159915052035 0.33333333333333343 
	-76.054333707200556 -5.2177060412009742e-13 -9.3139696335807803e-15 1 
	-74.979820236517057 0.77021612981247856 -9.1823796853294551e-15 1 
	-73.482190646309306 1.843723813368574 -8.9989729569338269e-15 1 
	-71.65638368169796 3.1292664360007612 -8.7753760914266022e-15 1 
	-70.643552795835248 3.8344779360577381 -8.6513400811816662e-15 1 
	-69.825330475878474 4.3990226968423043 -8.5511367466690689e-15 1 
	-68.76012874091164 5.1280753319417931 -8.4206871571517338e-15 1 
	-67.239777243953597 6.1549147606250703 -8.2344977977188789e-15 1 
	-64.982600416545509 7.6453876981749751 -7.9580733600393876e-15 1 
	-62.18309304447753 9.4373286241257297 -7.6152325858001424e-15 1 
	-59.06830185235679 11.351388472110663 -7.2337806794558363e-15 1 
	-55.901418825109175 13.211496535482997 -6.8459493631965489e-15 1 
	-52.820427258083448 14.939420365967731 -6.4686367171207436e-15 1 
	-49.755118551657148 16.575677940685285 -6.0932446675483958e-15 1 
	-46.68286899684086 18.130731574213261 -5.7170026091996303e-15 1 
	-43.619485490833156 19.59493306490101 -5.3418463286803159e-15 1 
	-40.564740632867732 20.966924598109149 -4.9677479774283954e-15 1 
	-37.518927957351295 22.245875120766669 -4.5947435030410315e-15 1 
	-34.485486126019552 23.429241957502644 -4.223254020127021e-15 1 
	-31.454990747981139 24.519358535513508 -3.8521253736724605e-15 1 
	-28.450734866845146 25.5074007465435 -3.4842101388071798e-15 1 
	-25.484957418552039 26.39039176687173 -3.1210071529036238e-15 1 
	-22.591216105774908 27.161955561674816 -2.7666260492783261e-15 1 
	-19.772376081492983 27.827094902629639 -2.4214177079737948e-15 1 
	-17.034122488240019 28.390512105868215 -2.0860783581506967e-15 1 
	-14.350749583662884 28.862709921372893 -1.757459954299784e-15 1 
	-11.648259221386784 29.25866542510342 -1.4265003371109842e-15 1 
	-9.0469976414333679 29.560545350678531 -1.1079376703474903e-15 1 
	-6.4577706967513695 29.78562078312839 -7.9084882134040113e-16 1 
	-4.2680570300297171 29.914422860168578 -5.2268623804041252e-16 1 
	-2.7215704095081055 29.968082994409308 -3.3329624906581267e-16 1 
	-1.9581634276953035 29.985471969298622 -2.3980585739343372e-16 1 
	-1.6294280256843183 29.991579824474201 -1.9954738160951659e-16 1 
	-1.3123795624454266 29.996495104489686 -1.6072014304150696e-16 1 
	-1.0803720908044909 29.998733853562648 -1.3230742228917273e-16 1 
	-0.94915799575270476 29.999999999999993 -1.162383301383541e-16 1 
	0 
	0 
	0 
	32 0.048244352304270488 0.06724175316790082 0.081486092192804893 0.093281594486990027 0.10351804367161799 0.12859043932568237 0.16023087403789649 0.20222359845870375 0.24988308356024713 0.29363620397966506 0.33624470915334426 0.37878404677471589 0.42042850692399403 0.46189430268870302 0.50267891862651592 0.54262171321933472 0.58243507181438692 0.62149112076846724 0.66013820631187814 0.69783293626073606 0.73440265905893853 0.76941542933765938 0.80351306044091042 0.8364106831479462 0.86883243619326422 0.90317590037122053 0.93196234218226137 0.96366748707296179 0.98321308733511303 0.98842881204120692 0.99153312557708118 0.99521147634831442 
	0 
	0 
	0 
	F 1 F 0 F 1 F 0 } I I I I #
-14 coedge $-1 -1 -1 $-1 $19 $20 $-1 $21 reversed $8 $22 #
-15 integer_attrib-name_attrib-gen-attrib $-1 -1 $-1 $-1 $11 2 1 2 1 1 1 1 1 1 1 1 1 1 1 0 1 1 1 @10 曲面-旋转1 0 #
-16 loop $-1 -1 -1 $-1 $-1 $23 $11 F unknown #
-17 plane-surface $-1 -1 -1 $-1 0.94915799575249893 30 0 3.430248998885767e-15 -1 0 1000 3.4302489988857668e-12 0 forward_v I I I I #
-18 coedge $-1 -1 -1 $-1 $24 $25 $19 $26 reversed $12 $27 #
-19 coedge $-1 -1 -1 $-1 $28 $14 $18 $26 forward $8 $29 #
-20 coedge $-1 -1 -1 $-1 $14 $28 $30 $31 reversed $8 $32 #
-21 edge $-1 -1 -1 $-1 $33 -1.224646799147353e-16 $34 3.1415926535897931 $14 $35 forward @7 unknown F #
-22 pcurve $-1 -1 -1 $-1 0 forward { exppc nubs 2 open 25 
	-3.1415926535897931 2 -3.0106929596902186 2 -2.879793265790644 2 -2.7488935718910694 2 -2.6179938779914944 2 
	-2.4870941840919194 2 -2.3561944901923448 2 -2.2252947962927703 2 -2.0943951023931957 2 -1.9634954084936209 2 
	-1.8325957145940461 2 -1.7016960206944713 2 -1.5707963267948966 2 -1.439896632895322 2 -1.3089969389957472 2 
	-1.1780972450961724 2 -1.0471975511965979 2 -0.91629785729702307 2 -0.78539816339744828 2 -0.65449846949787349 2 
	-0.52359877559829859 2 -0.39269908169872392 2 -0.26179938779914924 2 -0.13089969389957457 2 1.224646799147353e-16 2 
	1.8549899599749424e-15 1 
	1.9114024107834366e-13 0.93919541437639009 
	1.9334170808470966e-13 0.93848823149607985 
	9.2657325000655766e-14 0.90960399047556695 
	2.2342156054380586e-15 0.88366349398948063 
	5.0806264605220235e-13 0.85771409925190101 
	9.6857764673539818e-13 0.834089318958808 
	9.5498334487763675e-13 0.83345063648811657 
	1.940610024886192e-15 0.78867513459481309 
	2.74299610876754e-13 0.74708261984314761 
	2.7763861826608503e-13 0.74657271301553285 
	1.3569562414775511e-13 0.72625448696422046 
	1.9298769946395208e-15 0.70710678118654779 
	2.1133207487454091e-13 0.68795646351191109 
	4.106636309961994e-13 0.66972712943157475 
	4.0514666621991506e-13 0.66924458967693867 
	1.8984162743126904e-15 0.63397459621556185 
	7.1858532207051472e-14 0.59989085697120093 
	7.2750740451582061e-14 0.59945618368982023 
	3.9408525295481665e-13 0.58245945726000736 
	7.0854721455473669e-13 0.56582624879366705 
	3.6434799158465175e-13 0.54919241436444111 
	2.4559451640684204e-14 0.53277173140761858 
	2.4264033638116139e-14 0.53234462133404747 
	1.892321942275689e-15 0.50000000000000067 
	2.427562165167778e-14 0.46765537866595408 
	2.4571192673731645e-14 0.46722826859238281 
	3.6449842369402193e-13 0.45080758563556039 
	7.0883813804357224e-13 0.43417375120633439 
	3.940880307345633e-13 0.41754054273999397 
	7.2459075111757985e-14 0.40054381631018116 
	7.1569885702655492e-14 0.40010914302880057 
	1.8464836512625617e-15 0.36602540378443971 
	4.0492867461807708e-13 0.33075541032306277 
	4.1044336748980421e-13 0.33027287056842664 
	2.111622109832488e-13 0.31204353648809036 
	1.812959011061292e-15 0.29289321881345376 
	1.3567635726391219e-13 0.27374551303578104 
	2.7772297200090104e-13 0.25342728698446854 
	2.7437589818518037e-13 0.25291738015685394 
	1.358928189861516e-15 0.21132486540518855 
	9.5506168603000002e-13 0.1665493635118854 
	9.6866540252510728e-13 0.16591068104119391 
	5.0820328697095396e-13 0.14228590074810094 
	2.4329454068055112e-15 0.11633650601052159 
	9.2565551006895064e-14 0.090396009524435286 
	1.9292646373484539e-13 0.061511768503922447 
	1.9072977067178341e-13 0.060804585623612205 
	1.8549899599749625e-15 2.4424906541753389e-15 
	0.001 
	0.014081338933814025 
	spline forward { ref 0 } I I I I 
	} 0 0 #
-23 coedge $-1 -1 -1 $-1 $36 $36 $25 $37 reversed $16 $-1 #
-24 coedge $-1 -1 -1 $-1 $30 $18 $-1 $38 reversed $12 $39 #
-25 coedge $-1 -1 -1 $-1 $18 $30 $23 $37 forward $12 $40 #
-26 edge $-1 -1 -1 $-1 $33 0 $41 1 $19 $42 forward @7 unknown F #
-27 pcurve $-1 -1 -1 $-1 0 forward { exppc nubs 1 open 2 
	-1 1 -0 1 
	1 0.99999999999999756 
	4.4089189696551593e-16 1 
	0.001 
	-1 
	spline forward { ref 1 } I I I I 
	} 0 0 #
-28 coedge $-1 -1 -1 $-1 $20 $19 $36 $43 forward $8 $44 #
-29 pcurve $-1 -1 -1 $-1 0 forward { exppc nubs 1 open 2 
	0 1 1 1 
	1.9997036935065514e-16 2.4424906541753389e-15 
	1 1.9887846054562987e-17 
	0.001 
	-1 
	spline forward { ref 0 } I I I I 
	} 0 0 #
-30 coedge $-1 -1 -1 $-1 $25 $24 $20 $31 forward $12 $45 #
-31 edge $-1 -1 -1 $-1 $34 0 $46 1 $30 $47 forward @7 unknown F #
-32 pcurve $-1 -1 -1 $-1 0 forward { exppc nubs 1 open 2 
	-1 1 -0 1 
	1 1 
	4.4089189696551568e-16 1 
	0.001 
	-1 
	spline forward { ref 0 } I I I I 
	} 0 0 #
-33 vertex $-1 -1 -1 $-1 $26 $48 #
-34 vertex $-1 -1 -1 $-1 $21 $49 #
-35 ellipse-curve $-1 -1 -1 $-1 0 0 0 -3.430248998885767e-15 1 0 -76.054333707200556 -2.6088530206004876e-13 0 1 I I #
-36 coedge $-1 -1 -1 $-1 $23 $23 $28 $43 reversed $16 $-1 #
-37 edge $-1 -1 -1 $-1 $46 -3.1415926535897931 $41 -4.9676702961564248e-15 $23 $50 forward @7 unknown F #
-38 edge $-1 -1 -1 $-1 $34 -3.1415926535897931 $33 -1.224646799147353e-16 $24 $51 forward @7 unknown F #
-39 pcurve $-1 -1 -1 $-1 0 forward { exppc nubs 2 open 25 
	1.224646799147353e-16 2 0.13089969389957481 2 0.26179938779914952 2 0.39269908169872425 2 0.52359877559829893 2 
	0.6544984694978736 2 0.78539816339744828 2 0.91629785729702296 2 1.0471975511965976 2 1.1780972450961724 2 
	1.308996938995747 2 1.4398966328953218 2 1.5707963267948966 2 1.7016960206944711 2 1.8325957145940459 2 
	1.9634954084936207 2 2.0943951023931953 2 2.2252947962927703 2 2.3561944901923448 2 2.4870941840919194 2 
	2.6179938779914944 2 2.7488935718910694 2 2.879793265790644 2 3.0106929596902186 2 3.1415926535897931 2 
	1.8549899599749468e-15 1 
	1.914740506517788e-13 0.93919541437638987 
	1.9367940000374745e-13 0.93848823149607963 
	9.271039238758152e-14 0.90960399047556684 
	2.0316660395117914e-15 0.8836634939894803 
	5.0796334523141686e-13 0.85771409925190079 
	9.6857234536793955e-13 0.83408931895880778 
	9.5498410759043688e-13 0.83345063648811635 
	2.3665014198788722e-15 0.78867513459481287 
	2.7418710402324005e-13 0.74708261984314728 
	2.7751951087532229e-13 0.74657271301553274 
	1.3570998188466116e-13 0.72625448696422024 
	2.0700110168237799e-15 0.70710678118654757 
	2.1137839575418273e-13 0.68795646351191087 
	4.1062065042687335e-13 0.66972712943157453 
	4.0510816240349025e-13 0.66924458967693845 
	2.1871291152497059e-15 0.6339745962155614 
	7.1771438564861756e-14 0.59989085697120037 
	7.2658854112323122e-14 0.59945618368981979 
	3.9403154027976657e-13 0.58245945726000692 
	7.0853085910358126e-13 0.5658262487936665 
	3.6431031181346556e-13 0.54919241436444055 
	2.450072080637823e-14 0.53277173140761802 
	2.4206735711072883e-14 0.53234462133404681 
	1.9435366579615651e-15 0.5 
	2.410239574797422e-14 0.4676553786659533 
	2.4395003036167366e-14 0.46722826859238209 
	3.6425198850331114e-13 0.45080758563555956 
	7.0852054546534601e-13 0.43417375120633356 
	3.9407427958033806e-13 0.41754054273999319 
	7.2755805821103205e-14 0.40054381631018032 
	7.1861126062622046e-14 0.40010914302879974 
	1.7072129938777225e-15 0.36602540378443871 
	4.0499884017211794e-13 0.33075541032306166 
	4.1051639840581868e-13 0.33027287056842553 
	2.1117433959921448e-13 0.31204353648808913 
	1.7611084170397484e-15 0.29289321881345243 
	1.3556935419619518e-13 0.27374551303577971 
	2.7755744492822772e-13 0.25342728698446731 
	2.7421798127818176e-13 0.25291738015685261 
	1.8217637634126178e-15 0.21132486540518711 
	9.551552401668806e-13 0.16654936351188362 
	9.6875368919271607e-13 0.16591068104119211 
	5.0818667380234615e-13 0.14228590074809905 
	2.3011105419907244e-15 0.11633650601051959 
	9.2858509763186403e-14 0.090396009524433218 
	1.9369242197064118e-13 0.061511768503920337 
	1.9148284520347941e-13 0.060804585623610102 
	1.5003053661351341e-15 6.1232339957367858e-17 
	0.001 
	0.014081338933814136 
	spline forward { ref 1 } I I I I 
	} 0 0 #
-40 pcurve $-1 -1 -1 $-1 0 forward { exppc nubs 2 open 7 
	-3.1415926535897931 2 -2.6179938779914953 2 -2.0943951023931975 2 -1.570796326794899 2 -1.0471975511966012 2 
	-0.52359877559830281 2 -4.9676702961564248e-15 2 
	1 6.1232339957367636e-17 
	1 0.12679491924311212 
	1 0.21132486540518686 
	1 0.29708629022101074 
	1 0.36602540378443815 
	1 0.43533410314498244 
	1 0.49999999999999939 
	1.0000000000000002 0.56466589685501634 
	1 0.6339745962155604 
	1 0.70291370977898782 
	1 0.78867513459481164 
	1 0.87320508075688608 
	1 0.99999999999999756 
	0.001 
	0.00010783003766712262 
	spline forward { ref 1 } I I I I 
	} 0 0 #
-41 vertex $-1 -1 -1 $-1 $26 $52 #
-42 intcurve-curve $-1 -1 -1 $-1 forward { exactcur full nubs 3 open 34 
	0 3 0.048244352304270488 1 0.06724175316790082 1 0.081486092192804893 1 0.093281594486990027 1 
	0.10351804367161799 1 0.12859043932568237 1 0.16023087403789649 1 0.20222359845870375 1 0.24988308356024713 1 
	0.29363620397966506 1 0.33624470915334426 1 0.37878404677471589 1 0.42042850692399403 1 0.46189430268870302 1 
	0.50267891862651592 1 0.54262171321933472 1 0.58243507181438692 1 0.62149112076846724 1 0.66013820631187814 1 
	0.69783293626073606 1 0.73440265905893853 1 0.76941542933765938 1 0.80351306044091042 1 0.8364106831479462 1 
	0.86883243619326422 1 0.90317590037122053 1 0.93196234218226137 1 0.96366748707296179 1 0.98321308733511303 1 
	0.98842881204120692 1 0.99153312557708118 1 0.99521147634831442 1 1 3 
	-76.054333707200556 -4.8292990698508012e-13 -9.3139696335807803e-15 
	-74.979820236517057 0.77021612981247856 -9.1823796853294551e-15 
	-73.482190646309306 1.843723813368574 -8.9989729569338269e-15 
	-71.65638368169796 3.1292664360007612 -8.7753760914266022e-15 
	-70.643552795835248 3.8344779360577381 -8.6513400811816662e-15 
	-69.825330475878474 4.3990226968423043 -8.5511367466690689e-15 
	-68.76012874091164 5.1280753319417931 -8.4206871571517338e-15 
	-67.239777243953597 6.1549147606250703 -8.2344977977188789e-15 
	-64.982600416545509 7.6453876981749751 -7.9580733600393876e-15 
	-62.18309304447753 9.4373286241257297 -7.6152325858001424e-15 
	-59.06830185235679 11.351388472110663 -7.2337806794558363e-15 
	-55.901418825109175 13.211496535482997 -6.8459493631965489e-15 
	-52.820427258083448 14.939420365967731 -6.4686367171207436e-15 
	-49.755118551657148 16.575677940685285 -6.0932446675483958e-15 
	-46.68286899684086 18.130731574213261 -5.7170026091996303e-15 
	-43.619485490833156 19.59493306490101 -5.3418463286803159e-15 
	-40.564740632867732 20.966924598109149 -4.9677479774283954e-15 
	-37.518927957351295 22.245875120766669 -4.5947435030410315e-15 
	-34.485486126019552 23.429241957502644 -4.223254020127021e-15 
	-31.454990747981139 24.519358535513508 -3.8521253736724605e-15 
	-28.450734866845146 25.5074007465435 -3.4842101388071798e-15 
	-25.484957418552039 26.39039176687173 -3.1210071529036238e-15 
	-22.591216105774908 27.161955561674816 -2.7666260492783261e-15 
	-19.772376081492983 27.827094902629639 -2.4214177079737948e-15 
	-17.034122488240019 28.390512105868215 -2.0860783581506967e-15 
	-14.350749583662884 28.862709921372893 -1.757459954299784e-15 
	-11.648259221386784 29.25866542510342 -1.4265003371109842e-15 
	-9.0469976414333679 29.560545350678531 -1.1079376703474903e-15 
	-6.4577706967513695 29.78562078312839 -7.9084882134040113e-16 
	-4.2680570300297171 29.914422860168578 -5.2268623804041252e-16 
	-2.7215704095081055 29.968082994409308 -3.3329624906581267e-16 
	-1.9581634276953035 29.985471969298622 -2.3980585739343372e-16 
	-1.6294280256843183 29.991579824474201 -1.9954738160951659e-16 
	-1.3123795624454266 29.996495104489686 -1.6072014304150696e-16 
	-1.0803720908044909 29.998733853562648 -1.3230742228917273e-16 
	-0.94915799575270487 30.000000000000025 -4.7151039818595673e-15 
	0 
	null_surface 
	null_surface 
	nullbs 
	nullbs 
	-1 
	-1 
	I I 
	0 
	0 
	32 0.048244352304270488 0.06724175316790082 0.081486092192804893 0.093281594486990027 0.10351804367161799 0.12859043932568237 0.16023087403789649 0.20222359845870375 0.24988308356024713 0.29363620397966506 0.33624470915334426 0.37878404677471589 0.42042850692399403 0.46189430268870302 0.50267891862651592 0.54262171321933472 0.58243507181438692 0.62149112076846724 0.66013820631187814 0.69783293626073606 0.73440265905893853 0.76941542933765938 0.80351306044091042 0.8364106831479462 0.86883243619326422 0.90317590037122053 0.93196234218226137 0.96366748707296179 0.98321308733511303 0.98842881204120692 0.99153312557708118 0.99521147634831442 
	
	-1 
	none F F 1 F 0 } I I #
-43 edge $-1 -1 -1 $-1 $41 -4.9676702961564248e-15 $46 3.1415926535897931 $28 $53 forward @7 unknown F #
-44 pcurve $-1 -1 -1 $-1 0 forward { exppc nubs 2 open 7 
	-4.9676702961564248e-15 2 0.52359877559829471 2 1.0471975511965943 2 1.5707963267948941 2 2.0943951023931935 2 
	2.6179938779914935 2 3.1415926535897931 2 
	1 1.9887846054562571e-17 
	1 0.12679491924311251 
	1 0.21132486540518733 
	1 0.29708629022101135 
	1 0.36602540378443876 
	1 0.435334103144983 
	1 0.5 
	0.99999999999999989 0.56466589685501689 
	1 0.63397459621556118 
	0.99999999999999978 0.70291370977898859 
	1 0.78867513459481275 
	1 0.87320508075688752 
	1 1 
	0.001 
	0.00010783003766702548 
	spline forward { ref 0 } I I I I 
	} 0 0 #
-45 pcurve $-1 -1 -1 $-1 0 forward { exppc nubs 1 open 2 
	0 1 1 1 
	4.4089189696551543e-16 0 
	1 0 
	0.001 
	-1 
	spline forward { ref 1 } I I I I 
	} 0 0 #
-46 vertex $-1 -1 -1 $-1 $43 $54 #
-47 intcurve-curve $-1 -1 -1 $-1 forward { exactcur full nubs 3 open 34 
	0 3 0.048244352304270488 1 0.06724175316790082 1 0.081486092192804893 1 0.093281594486990027 1 
	0.10351804367161799 1 0.12859043932568237 1 0.16023087403789649 1 0.20222359845870375 1 0.24988308356024713 1 
	0.29363620397966506 1 0.33624470915334426 1 0.37878404677471589 1 0.42042850692399403 1 0.46189430268870302 1 
	0.50267891862651592 1 0.54262171321933472 1 0.58243507181438692 1 0.62149112076846724 1 0.66013820631187814 1 
	0.69783293626073606 1 0.73440265905893853 1 0.76941542933765938 1 0.80351306044091042 1 0.8364106831479462 1 
	0.86883243619326422 1 0.90317590037122053 1 0.93196234218226137 1 0.96366748707296179 1 0.98321308733511303 1 
	0.98842881204120692 1 0.99153312557708118 1 0.99521147634831442 1 1 3 
	76.054333707200556 3.8840697135017409e-14 0 
	74.979820236517057 0.77021612981299292 0 
	73.482190646309292 1.8437238133690783 0 
	71.656383681697932 3.1292664360012528 0 
	70.64355279583522 3.8344779360582231 0 
	69.825330475878459 4.399022696842783 0 
	68.760128740911597 5.1280753319422647 0 
	67.239777243953554 6.1549147606255312 0 
	64.982600416545452 7.645387698175421 0 
	62.183093044477467 9.4373286241261578 0 
	59.068301852356718 11.35138847211107 0 
	55.90141882510909 13.211496535483379 0 
	52.820427258083342 14.939420365968093 0 
	49.755118551657041 16.575677940685623 0 
	46.682868996840739 18.130731574213581 0 
	43.619485490833029 19.594933064901308 0 
	40.56474063286759 20.966924598109426 0 
	37.518927957351146 22.245875120766925 0 
	34.485486126019389 23.429241957502878 0 
	31.454990747980972 24.519358535513721 0 
	28.450734866844972 25.507400746543695 0 
	25.484957418551858 26.3903917668719 0 
	22.59121610577472 27.161955561674972 0 
	19.772376081492794 27.827094902629774 0 
	17.034122488239827 28.390512105868332 0 
	14.350749583662685 28.862709921372993 0 
	11.648259221386581 29.258665425103501 0 
	9.0469976414331654 29.560545350678595 0 
	6.4577706967511643 29.785620783128437 0 
	4.2680570300295111 29.914422860168607 0 
	2.7215704095078999 29.968082994409325 0 
	1.9581634276950979 29.985471969298636 0 
	1.6294280256841127 29.991579824474211 0 
	1.3123795624452208 29.996495104489696 0 
	1.0803720908042851 29.998733853562655 0 
	0.94915799575249904 30.000000000000028 0 
	0 
	null_surface 
	null_surface 
	nullbs 
	nullbs 
	-1 
	-1 
	I I 
	0 
	0 
	32 0.048244352304270488 0.06724175316790082 0.081486092192804893 0.093281594486990027 0.10351804367161799 0.12859043932568237 0.16023087403789649 0.20222359845870375 0.24988308356024713 0.29363620397966506 0.33624470915334426 0.37878404677471589 0.42042850692399403 0.46189430268870302 0.50267891862651592 0.54262171321933472 0.58243507181438692 0.62149112076846724 0.66013820631187814 0.69783293626073606 0.73440265905893853 0.76941542933765938 0.80351306044091042 0.8364106831479462 0.86883243619326422 0.90317590037122053 0.93196234218226137 0.96366748707296179 0.98321308733511303 0.98842881204120692 0.99153312557708118 0.99521147634831442 
	
	-1 
	none F F 1 F 0 } I I #
-48 point $-1 -1 -1 $-1 -76.054333707200556 -4.8292990698508012e-13 -9.3139696335807803e-15 #
-49 point $-1 -1 -1 $-1 76.054333707200556 3.8840697135017409e-14 0 #
-50 ellipse-curve $-1 -1 -1 $-1 -1.0290746996657359e-13 30.000000000000028 0 -3.430248998885767e-15 1 0 -0.94915799575260196 -3.4694469519536142e-15 0 1 I I #
-51 ellipse-curve $-1 -1 -1 $-1 0 0 0 -3.430248998885767e-15 1 0 -76.054333707200556 -2.6088530206004876e-13 0 1 I I #
-52 point $-1 -1 -1 $-1 -0.94915799575270487 30.000000000000025 -4.7151039818595673e-15 #
-53 ellipse-curve $-1 -1 -1 $-1 -1.0290746996657359e-13 30.000000000000028 0 -3.430248998885767e-15 1 0 -0.94915799575260196 -3.4694469519536142e-15 0 1 I I #
-54 point $-1 -1 -1 $-1 0.94915799575249904 30.000000000000028 0 #
End-of-ACIS-data 