2000 0 1 0           
15 SolidWorks 2022 14 ACIS 27.0.2 NT 24 Thu May 18 12:03:12 2023 
1 9.9999999999999995e-07 1e-10 
-0 body $1 -1 -1 $-1 $2 $-1 $-1 F #
-1 name_attrib-gen-attrib $-1 -1 $-1 $-1 $0 2 1 1 1 1 1 1 1 1 1 1 1 1 1 0 1 1 1 @4 0x05 #
-2 lump $3 -1 -1 $-1 $-1 $4 $0 F #
-3 rgb_color-st-attrib $-1 -1 $-1 $-1 $2 2 1 2 1 1 1 1 1 1 1 1 1 1 1 0 1 1 1 0.792156862745098 0.81960784313725488 0.93333333333333335 #
-4 shell $-1 -1 -1 $-1 $-1 $-1 $5 $-1 $2 F #
-5 face $6 -1 -1 $-1 $7 $8 $4 $-1 $9 forward single F F #
-6 integer_attrib-name_attrib-gen-attrib $-1 -1 $-1 $-1 $5 2 1 2 1 1 1 1 1 1 1 1 1 1 1 0 1 1 1 @10 曲面-旋转1 0 #
-7 face $10 -1 -1 $-1 $-1 $11 $4 $-1 $12 forward single F F #
-8 loop $-1 -1 -1 $-1 $-1 $13 $5 F unknown #
-9 spline-surface $-1 -1 -1 $-1 forward { exactsur full nurbs 3 3 both open open low none 31 2 
	0 3 0.0051229766901793889 1 0.0072455041407893939 1 0.012553143953627846 1 0.053895947439171192 1 
	0.079505637355757455 1 0.1171326037886862 1 0.15242398574504801 1 0.18829491639289039 1 0.22542813997749733 1 
	0.26379871227053264 1 0.30373442449258065 1 0.34524103949150259 1 0.38803304057489735 1 0.431652730751442 1 
	0.47593157801365416 1 0.5206275226339242 1 0.56576766054766658 1 0.61137836915331001 1 0.65766153941896233 1 
	0.70495592683987907 1 0.75342681216272078 1 0.80265889673174973 1 0.85260517190473106 1 0.90356605956655445 1 
	0.95427467527604037 1 0.95867833312185735 1 0.96918154825098568 1 0.97588099203971213 1 0.98470189724707369 1 
	1 3 
	0 3 1 3 
	-1.3720995995543149e-13 20.000000000000004 -8.4016869135277846e-30 1 
	-0.094286704949934422 19.999796183991851 -1.1546791141900408e-17 1 
	-0.22763795838088263 19.999510730632053 -2.7877609709550229e-17 1 
	-0.45867197869684795 19.998305684383876 -5.6171117056959376e-17 1 
	-1.3562912192607015 19.990229381989089 -1.6609777003791952e-16 1 
	-2.6858296690800305 19.949094097775973 -3.2891927072937701e-16 1 
	-4.6070213137236395 19.829853759438908 -5.6419739054552064e-16 1 
	-6.4131445781521119 19.664784177927704 -7.8538369801031045e-16 1 
	-8.400190528257065 19.416584127523333 -1.0287266442657845e-15 1 
	-10.369383344680264 19.106882402072145 -1.269883212219448e-15 1 
	-12.383424681200676 18.724173889225181 -1.5165321398314662e-15 1 
	-14.457250326931764 18.261083661993606 -1.7705025337348935e-15 1 
	-16.593190096416532 17.711934304986077 -2.0320797139219992e-15 1 
	-18.788669487690829 17.072201010084346 -2.3009483948338043e-15 1 
	-21.027381184984687 16.342651197089218 -2.575111506264271e-15 1 
	-23.2906735645739 15.527549104264159 -2.8522848830841233e-15 1 
	-25.561523466660116 14.633202910267997 -3.1303837894775204e-15 1 
	-27.831984173600791 13.664237587522695 -3.4084350332119946e-15 1 
	-30.097905609143162 12.624521917243415 -3.6859303765276286e-15 1 
	-32.362788709241926 11.514507320602759 -3.9632985604255177e-15 1 
	-34.63518302084924 10.331478426498892 -4.2415866024365738e-15 1 
	-36.92552650319108 9.0704877330130298 -4.5220727838963678e-15 1 
	-39.233987618209234 7.7312798775987295 -4.8047777354426791e-15 1 
	-41.554821447856703 6.3174083536180312 -5.0889979075257465e-15 1 
	-43.884809175820372 4.8316152927910778 -5.3743391088360798e-15 1 
	-46.207797927788882 3.28532153491606 -5.6588231827914341e-15 1 
	-47.812572087982296 2.1734433589870985 -5.8553513366549597e-15 1 
	-48.798633159373942 1.4762598423763376 -5.9761089901393193e-15 1 
	-49.122745166214543 1.2458603571724038 -6.0158012633135757e-15 1 
	-49.512287217925888 0.96719172753393312 -6.0635064059897353e-15 1 
	-49.97282621719998 0.63609237580773992 -6.119906167124088e-15 1 
	-50.33185157932671 0.37503317279733162 -6.1638740931782107e-15 1 
	-50.559572673401753 0.20944964138401859 -6.1917618840739443e-15 1 
	-1.3720995995543151e-13 20.000000000000004 1.3720995995543162e-13 0.33333333333333343 
	-0.09428670494993445 19.999796183991851 0.18857340989973156 0.33333333333333343 
	-0.22763795838088266 19.999510730632053 0.45527591676162787 0.33333333333333343 
	-0.45867197869684811 19.998305684383876 0.91734395739355845 0.33333333333333343 
	-1.356291219260702 19.990229381989089 2.7125824385212658 0.33333333333333343 
	-2.6858296690800314 19.949094097775973 5.3716593381599225 0.33333333333333343 
	-4.6070213137236404 19.829853759438908 9.2140426274471423 0.33333333333333343 
	-6.4131445781521137 19.664784177927704 12.826289156304084 0.33333333333333343 
	-8.4001905282570668 19.416584127523333 16.800381056513995 0.33333333333333343 
	-10.369383344680266 19.106882402072145 20.738766689360393 0.33333333333333343 
	-12.38342468120068 18.724173889225181 24.766849362401217 0.33333333333333343 
	-14.457250326931769 18.261083661993606 28.914500653863392 0.33333333333333343 
	-16.593190096416535 17.711934304986077 33.186380192832928 0.33333333333333343 
	-18.788669487690832 17.072201010084346 37.577338975381537 0.33333333333333343 
	-21.027381184984691 16.342651197089218 42.054762369969261 0.33333333333333343 
	-23.290673564573908 15.52754910426416 46.581347129147687 0.33333333333333343 
	-25.561523466660123 14.633202910267999 51.123046933320119 0.33333333333333343 
	-27.831984173600798 13.664237587522695 55.663968347201468 0.33333333333333343 
	-30.097905609143172 12.624521917243415 60.195811218286217 0.33333333333333343 
	-32.362788709241933 11.514507320602759 64.725577418483752 0.33333333333333343 
	-34.635183020849247 10.331478426498892 69.270366041698395 0.33333333333333343 
	-36.925526503191087 9.0704877330130298 73.851053006382088 0.33333333333333343 
	-39.233987618209241 7.7312798775987295 78.467975236418397 0.33333333333333343 
	-41.55482144785671 6.3174083536180312 83.10964289571335 0.33333333333333343 
	-43.884809175820379 4.8316152927910778 87.769618351640702 0.33333333333333343 
	-46.207797927788896 3.28532153491606 92.41559585557772 0.33333333333333343 
	-47.812572087982311 2.1734433589870985 95.625144175964564 0.33333333333333343 
	-48.798633159373956 1.4762598423763378 97.597266318747856 0.33333333333333343 
	-49.122745166214564 1.2458603571724038 98.245490332429043 0.33333333333333343 
	-49.512287217925902 0.96719172753393323 99.024574435851747 0.33333333333333343 
	-49.972826217200002 0.63609237580773992 99.945652434399932 0.33333333333333343 
	-50.331851579326717 0.37503317279733167 100.66370315865339 0.33333333333333343 
	-50.559572673401767 0.20944964138401859 101.11914534680346 0.33333333333333343 
	-3.3606747654111127e-29 20.000000000000004 1.3720995995543136e-13 0.33333333333333343 
	0.094286704949797184 19.999796183991851 0.18857340989973162 0.33333333333333343 
	0.2276379583807453 19.999510730632053 0.45527591676162804 0.33333333333333343 
	0.45867197869671056 19.99830568438388 0.91734395739355867 0.33333333333333343 
	1.3562912192605638 19.990229381989099 2.7125824385212658 0.33333333333333343 
	2.685829669079892 19.949094097775991 5.3716593381599234 0.33333333333333343 
	4.6070213137235001 19.82985375943894 9.2140426274471423 0.33333333333333343 
	6.4131445781519734 19.66478417792775 12.826289156304087 0.33333333333333343 
	8.4001905282569282 19.416584127523393 16.800381056513995 0.33333333333333343 
	10.369383344680127 19.10688240207222 20.738766689360396 0.33333333333333343 
	12.383424681200545 18.724173889225263 24.766849362401224 0.33333333333333343 
	14.457250326931634 18.261083661993709 28.914500653863403 0.33333333333333343 
	16.593190096416404 17.71193430498619 33.186380192832942 0.33333333333333343 
	18.788669487690701 17.072201010084473 37.577338975381544 0.33333333333333343 
	21.027381184984566 16.342651197089364 42.054762369969268 0.33333333333333343 
	23.29067356457378 15.527549104264317 46.581347129147687 0.33333333333333343 
	25.561523466659999 14.633202910268171 51.123046933320119 0.33333333333333343 
	27.831984173600684 13.664237587522884 55.663968347201475 0.33333333333333343 
	30.097905609143059 12.624521917243619 60.195811218286224 0.33333333333333343 
	32.362788709241833 11.514507320602981 64.72557741848378 0.33333333333333343 
	34.635183020849155 10.33147842649913 69.270366041698409 0.33333333333333343 
	36.925526503190994 9.070487733013282 73.851053006382088 0.33333333333333343 
	39.233987618209156 7.7312798775989995 78.467975236418411 0.33333333333333343 
	41.554821447856639 6.3174083536183163 83.109642895713364 0.33333333333333343 
	43.884809175820315 4.8316152927913789 87.769618351640702 0.33333333333333343 
	46.207797927788839 3.2853215349163767 92.415595855577749 0.33333333333333343 
	47.812572087982275 2.1734433589874262 95.625144175964579 0.33333333333333343 
	48.798633159373921 1.4762598423766722 97.59726631874787 0.33333333333333343 
	49.122745166214521 1.2458603571727407 98.245490332429085 0.33333333333333343 
	49.512287217925859 0.96719172753427274 99.024574435851747 0.33333333333333343 
	49.972826217199945 0.63609237580808276 99.945652434399932 0.33333333333333343 
	50.331851579326674 0.37503317279767695 100.66370315865339 0.33333333333333343 
	50.559572673401725 0.20944964138436545 101.11914534680349 0.33333333333333343 
	0 20.000000000000004 1.6803373827055566e-29 1 
	0.094286704949797212 19.999796183991851 2.3093582283800816e-17 1 
	0.22763795838074541 19.999510730632053 5.5755219419100459e-17 1 
	0.45867197869671078 19.99830568438388 1.1234223411391875e-16 1 
	1.3562912192605645 19.990229381989099 3.3219554007583903e-16 1 
	2.6858296690798933 19.949094097775991 6.5783854145875402e-16 1 
	4.6070213137235028 19.82985375943894 1.1283947810910413e-15 1 
	6.4131445781519769 19.66478417792775 1.5707673960206209e-15 1 
	8.4001905282569318 19.416584127523393 2.0574532885315691e-15 1 
	10.369383344680132 19.10688240207222 2.539766424438896e-15 1 
	12.383424681200548 18.724173889225263 3.0330642796629324e-15 1 
	14.457250326931639 18.261083661993709 3.541005067469787e-15 1 
	16.593190096416411 17.71193430498619 4.0641594278439984e-15 1 
	18.788669487690711 17.072201010084473 4.6018967896676086e-15 1 
	21.027381184984577 16.342651197089364 5.1502230125285419e-15 1 
	23.29067356457379 15.527549104264317 5.7045697661682466e-15 1 
	25.561523466660017 14.633202910268171 6.2607675789550407e-15 1 
	27.831984173600699 13.664237587522885 6.8168700664239885e-15 1 
	30.097905609143073 12.624521917243621 7.3718607530552572e-15 1 
	32.362788709241848 11.514507320602981 7.9265971208510369e-15 1 
	34.635183020849169 10.33147842649913 8.483173204873146e-15 1 
	36.925526503191016 9.070487733013282 9.0441455677927357e-15 1 
	39.233987618209177 7.7312798775989986 9.6095554708853582e-15 1 
	41.554821447856661 6.3174083536183172 1.0177995815051495e-14 1 
	43.884809175820337 4.8316152927913789 1.074867821767216e-14 1 
	46.20779792778886 3.2853215349163771 1.1317646365582867e-14 1 
	47.812572087982289 2.1734433589874262 1.1710702673309919e-14 1 
	48.798633159373935 1.4762598423766722 1.1952217980278639e-14 1 
	49.122745166214536 1.2458603571727407 1.2031602526627151e-14 1 
	49.512287217925881 0.96719172753427274 1.2127012811979471e-14 1 
	49.972826217199973 0.63609237580808276 1.2239812334248176e-14 1 
	50.33185157932671 0.37503317279767695 1.2327748186356421e-14 1 
	50.559572673401753 0.20944964138436545 1.2383523768147889e-14 1 
	0 
	0 
	0 
	29 0.0051229766901793889 0.0072455041407893939 0.012553143953627846 0.053895947439171192 0.079505637355757455 0.1171326037886862 0.15242398574504801 0.18829491639289039 0.22542813997749733 0.26379871227053264 0.30373442449258065 0.34524103949150259 0.38803304057489735 0.431652730751442 0.47593157801365416 0.5206275226339242 0.56576766054766658 0.61137836915331001 0.65766153941896233 0.70495592683987907 0.75342681216272078 0.80265889673174973 0.85260517190473106 0.90356605956655445 0.95427467527604037 0.95867833312185735 0.96918154825098568 0.97588099203971213 0.98470189724707369 
	0 
	0 
	0 
	F 1 F 0 F 1 F 0 } I I I I #
-10 integer_attrib-name_attrib-gen-attrib $-1 -1 $-1 $-1 $7 2 1 2 1 1 1 1 1 1 1 1 1 1 1 0 1 1 1 @10 曲面-旋转1 0 #
-11 loop $-1 -1 -1 $-1 $-1 $14 $7 F unknown #
-12 spline-surface $-1 -1 -1 $-1 forward { exactsur full nurbs 3 3 both open open low none 31 2 
	0 3 0.0051229766901793889 1 0.0072455041407893939 1 0.012553143953627846 1 0.053895947439171192 1 
	0.079505637355757455 1 0.1171326037886862 1 0.15242398574504801 1 0.18829491639289039 1 0.22542813997749733 1 
	0.26379871227053264 1 0.30373442449258065 1 0.34524103949150259 1 0.38803304057489735 1 0.431652730751442 1 
	0.47593157801365416 1 0.5206275226339242 1 0.56576766054766658 1 0.61137836915331001 1 0.65766153941896233 1 
	0.70495592683987907 1 0.75342681216272078 1 0.80265889673174973 1 0.85260517190473106 1 0.90356605956655445 1 
	0.95427467527604037 1 0.95867833312185735 1 0.96918154825098568 1 0.97588099203971213 1 0.98470189724707369 1 
	1 3 
	0 3 1 3 
	0 20.000000000000004 0 1 
	0.094286704949797212 19.999796183991851 0 1 
	0.22763795838074541 19.999510730632053 0 1 
	0.45867197869671078 19.99830568438388 0 1 
	1.3562912192605645 19.990229381989099 0 1 
	2.6858296690798933 19.949094097775991 0 1 
	4.6070213137235028 19.82985375943894 0 1 
	6.4131445781519769 19.66478417792775 0 1 
	8.4001905282569318 19.416584127523393 0 1 
	10.369383344680132 19.10688240207222 0 1 
	12.383424681200548 18.724173889225263 0 1 
	14.457250326931639 18.261083661993709 0 1 
	16.593190096416411 17.71193430498619 0 1 
	18.788669487690711 17.072201010084473 0 1 
	21.027381184984577 16.342651197089364 0 1 
	23.29067356457379 15.527549104264317 0 1 
	25.561523466660017 14.633202910268171 0 1 
	27.831984173600699 13.664237587522885 0 1 
	30.097905609143073 12.624521917243621 0 1 
	32.362788709241848 11.514507320602981 0 1 
	34.635183020849169 10.33147842649913 0 1 
	36.925526503191016 9.070487733013282 0 1 
	39.233987618209177 7.7312798775989986 0 1 
	41.554821447856661 6.3174083536183172 0 1 
	43.884809175820337 4.8316152927913789 0 1 
	46.20779792778886 3.2853215349163771 0 1 
	47.812572087982289 2.1734433589874262 0 1 
	48.798633159373935 1.4762598423766722 0 1 
	49.122745166214536 1.2458603571727407 0 1 
	49.512287217925881 0.96719172753427274 0 1 
	49.972826217199973 0.63609237580808276 0 1 
	50.33185157932671 0.37503317279767695 0 1 
	50.559572673401753 0.20944964138436545 0 1 
	0 20.000000000000004 -1.3720995995543134e-13 0.33333333333333343 
	0.094286704949797226 19.999796183991851 -0.18857340989973156 0.33333333333333343 
	0.22763795838074541 19.999510730632053 -0.45527591676162793 0.33333333333333343 
	0.45867197869671078 19.99830568438388 -0.91734395739355845 0.33333333333333343 
	1.3562912192605645 19.990229381989099 -2.7125824385212658 0.33333333333333343 
	2.6858296690798933 19.949094097775991 -5.3716593381599225 0.33333333333333343 
	4.6070213137235028 19.82985375943894 -9.2140426274471405 0.33333333333333343 
	6.4131445781519769 19.66478417792775 -12.826289156304084 0.33333333333333343 
	8.4001905282569318 19.416584127523393 -16.800381056513991 0.33333333333333343 
	10.369383344680132 19.10688240207222 -20.738766689360393 0.33333333333333343 
	12.38342468120055 18.724173889225263 -24.766849362401217 0.33333333333333343 
	14.457250326931639 18.261083661993709 -28.914500653863396 0.33333333333333343 
	16.593190096416411 17.71193430498619 -33.186380192832935 0.33333333333333343 
	18.788669487690711 17.072201010084473 -37.577338975381537 0.33333333333333343 
	21.027381184984577 16.342651197089364 -42.054762369969261 0.33333333333333343 
	23.29067356457379 15.527549104264317 -46.58134712914768 0.33333333333333343 
	25.561523466660017 14.633202910268171 -51.123046933320111 0.33333333333333343 
	27.831984173600699 13.664237587522884 -55.663968347201475 0.33333333333333343 
	30.097905609143076 12.624521917243619 -60.195811218286217 0.33333333333333343 
	32.362788709241848 11.514507320602981 -64.725577418483766 0.33333333333333343 
	34.635183020849169 10.33147842649913 -69.270366041698395 0.33333333333333343 
	36.925526503191016 9.070487733013282 -73.851053006382074 0.33333333333333343 
	39.233987618209177 7.7312798775989995 -78.467975236418397 0.33333333333333343 
	41.554821447856661 6.3174083536183163 -83.10964289571335 0.33333333333333343 
	43.884809175820337 4.8316152927913789 -87.769618351640688 0.33333333333333343 
	46.20779792778886 3.2853215349163767 -92.415595855577735 0.33333333333333343 
	47.812572087982289 2.1734433589874262 -95.625144175964564 0.33333333333333343 
	48.798633159373935 1.4762598423766722 -97.59726631874787 0.33333333333333343 
	49.122745166214543 1.2458603571727407 -98.245490332429057 0.33333333333333343 
	49.512287217925881 0.96719172753427274 -99.024574435851747 0.33333333333333343 
	49.97282621719998 0.63609237580808276 -99.945652434399918 0.33333333333333343 
	50.33185157932671 0.37503317279767695 -100.66370315865339 0.33333333333333343 
	50.559572673401753 0.20944964138436545 -101.11914534680346 0.33333333333333343 
	-1.3720995995543146e-13 20.000000000000004 -1.3720995995543162e-13 0.33333333333333343 
	-0.094286704949934408 19.999796183991851 -0.18857340989973156 0.33333333333333343 
	-0.22763795838088258 19.999510730632053 -0.45527591676162804 0.33333333333333343 
	-0.45867197869684784 19.998305684383876 -0.91734395739355867 0.33333333333333343 
	-1.3562912192607011 19.990229381989089 -2.7125824385212658 0.33333333333333343 
	-2.6858296690800296 19.949094097775973 -5.3716593381599225 0.33333333333333343 
	-4.6070213137236387 19.829853759438908 -9.2140426274471423 0.33333333333333343 
	-6.4131445781521093 19.664784177927704 -12.826289156304084 0.33333333333333343 
	-8.4001905282570632 19.416584127523333 -16.800381056513995 0.33333333333333343 
	-10.369383344680262 19.106882402072145 -20.738766689360393 0.33333333333333343 
	-12.383424681200674 18.724173889225181 -24.766849362401217 0.33333333333333343 
	-14.45725032693176 18.261083661993606 -28.914500653863403 0.33333333333333343 
	-16.593190096416528 17.711934304986077 -33.186380192832928 0.33333333333333343 
	-18.788669487690825 17.072201010084346 -37.577338975381537 0.33333333333333343 
	-21.027381184984684 16.342651197089218 -42.054762369969261 0.33333333333333343 
	-23.290673564573893 15.52754910426416 -46.581347129147687 0.33333333333333343 
	-25.561523466660109 14.633202910267999 -51.123046933320119 0.33333333333333343 
	-27.83198417360078 13.664237587522695 -55.663968347201468 0.33333333333333343 
	-30.097905609143154 12.624521917243415 -60.195811218286238 0.33333333333333343 
	-32.362788709241919 11.514507320602759 -64.725577418483752 0.33333333333333343 
	-34.635183020849233 10.331478426498892 -69.270366041698395 0.33333333333333343 
	-36.925526503191072 9.0704877330130298 -73.851053006382088 0.33333333333333343 
	-39.233987618209227 7.7312798775987295 -78.467975236418397 0.33333333333333343 
	-41.554821447856696 6.3174083536180312 -83.10964289571335 0.33333333333333343 
	-43.884809175820358 4.8316152927910778 -87.769618351640702 0.33333333333333343 
	-46.207797927788867 3.28532153491606 -92.41559585557772 0.33333333333333343 
	-47.812572087982289 2.1734433589870985 -95.625144175964564 0.33333333333333343 
	-48.798633159373935 1.4762598423763378 -97.597266318747856 0.33333333333333343 
	-49.122745166214528 1.2458603571724038 -98.245490332429043 0.33333333333333343 
	-49.512287217925874 0.96719172753393323 -99.024574435851747 0.33333333333333343 
	-49.972826217199966 0.63609237580773992 -99.945652434399932 0.33333333333333343 
	-50.331851579326695 0.37503317279733167 -100.66370315865339 0.33333333333333343 
	-50.559572673401732 0.20944964138401859 -101.11914534680346 0.33333333333333343 
	-1.3720995995543149e-13 20.000000000000004 -8.4016869135277846e-30 1 
	-0.094286704949934422 19.999796183991851 -1.1546791141900408e-17 1 
	-0.22763795838088263 19.999510730632053 -2.7877609709550229e-17 1 
	-0.45867197869684795 19.998305684383876 -5.6171117056959376e-17 1 
	-1.3562912192607015 19.990229381989089 -1.6609777003791952e-16 1 
	-2.6858296690800305 19.949094097775973 -3.2891927072937701e-16 1 
	-4.6070213137236395 19.829853759438908 -5.6419739054552064e-16 1 
	-6.4131445781521119 19.664784177927704 -7.8538369801031045e-16 1 
	-8.400190528257065 19.416584127523333 -1.0287266442657845e-15 1 
	-10.369383344680264 19.106882402072145 -1.269883212219448e-15 1 
	-12.383424681200676 18.724173889225181 -1.5165321398314662e-15 1 
	-14.457250326931764 18.261083661993606 -1.7705025337348935e-15 1 
	-16.593190096416532 17.711934304986077 -2.0320797139219992e-15 1 
	-18.788669487690829 17.072201010084346 -2.3009483948338043e-15 1 
	-21.027381184984687 16.342651197089218 -2.575111506264271e-15 1 
	-23.2906735645739 15.527549104264159 -2.8522848830841233e-15 1 
	-25.561523466660116 14.633202910267997 -3.1303837894775204e-15 1 
	-27.831984173600791 13.664237587522695 -3.4084350332119946e-15 1 
	-30.097905609143162 12.624521917243415 -3.6859303765276286e-15 1 
	-32.362788709241926 11.514507320602759 -3.9632985604255177e-15 1 
	-34.63518302084924 10.331478426498892 -4.2415866024365738e-15 1 
	-36.92552650319108 9.0704877330130298 -4.5220727838963678e-15 1 
	-39.233987618209234 7.7312798775987295 -4.8047777354426791e-15 1 
	-41.554821447856703 6.3174083536180312 -5.0889979075257465e-15 1 
	-43.884809175820372 4.8316152927910778 -5.3743391088360798e-15 1 
	-46.207797927788882 3.28532153491606 -5.6588231827914341e-15 1 
	-47.812572087982296 2.1734433589870985 -5.8553513366549597e-15 1 
	-48.798633159373942 1.4762598423763376 -5.9761089901393193e-15 1 
	-49.122745166214543 1.2458603571724038 -6.0158012633135757e-15 1 
	-49.512287217925888 0.96719172753393312 -6.0635064059897353e-15 1 
	-49.97282621719998 0.63609237580773992 -6.119906167124088e-15 1 
	-50.33185157932671 0.37503317279733162 -6.1638740931782107e-15 1 
	-50.559572673401753 0.20944964138401859 -6.1917618840739443e-15 1 
	0 
	0 
	0 
	29 0.0051229766901793889 0.0072455041407893939 0.012553143953627846 0.053895947439171192 0.079505637355757455 0.1171326037886862 0.15242398574504801 0.18829491639289039 0.22542813997749733 0.26379871227053264 0.30373442449258065 0.34524103949150259 0.38803304057489735 0.431652730751442 0.47593157801365416 0.5206275226339242 0.56576766054766658 0.61137836915331001 0.65766153941896233 0.70495592683987907 0.75342681216272078 0.80265889673174973 0.85260517190473106 0.90356605956655445 0.95427467527604037 0.95867833312185735 0.96918154825098568 0.97588099203971213 0.98470189724707369 
	0 
	0 
	0 
	F 1 F 0 F 1 F 0 } I I I I #
-13 coedge $-1 -1 -1 $-1 $15 $16 $17 $18 reversed $8 $19 #
-14 coedge $-1 -1 -1 $-1 $17 $20 $15 $21 reversed $11 $22 #
-15 coedge $-1 -1 -1 $-1 $16 $13 $14 $21 forward $8 $23 #
-16 coedge $-1 -1 -1 $-1 $13 $15 $-1 $24 forward $8 $25 #
-17 coedge $-1 -1 -1 $-1 $20 $14 $13 $18 forward $11 $26 #
-18 edge $-1 -1 -1 $-1 $27 0 $28 1 $17 $29 forward @7 unknown F #
-19 pcurve $-1 -1 -1 $-1 0 forward { exppc nubs 1 open 2 
	-1 1 -0 1 
	0.99999999999999911 1 
	0 1 
	0.001 
	-1 
	spline forward { ref 0 } I I I I 
	} 0 0 #
-20 coedge $-1 -1 -1 $-1 $14 $17 $-1 $30 forward $11 $31 #
-21 edge $-1 -1 -1 $-1 $27 0 $32 1 $14 $33 forward @7 unknown F #
-22 pcurve $-1 -1 -1 $-1 0 forward { exppc nubs 1 open 2 
	-1 1 -0 1 
	0.99999999999999911 1 
	0 1 
	0.001 
	-1 
	spline forward { ref 1 } I I I I 
	} 0 0 #
-23 pcurve $-1 -1 -1 $-1 0 forward { exppc nubs 1 open 2 
	0 1 1 1 
	0 2.1515567408416471e-32 
	0.99999999999999911 0 
	0.001 
	-1 
	spline forward { ref 0 } I I I I 
	} 0 0 #
-24 edge $-1 -1 -1 $-1 $32 -1.224646799147353e-16 $28 3.1415926535897931 $16 $34 forward @7 unknown F #
-25 pcurve $-1 -1 -1 $-1 0 forward { exppc nubs 2 open 25 
	-1.224646799147353e-16 2 0.13089969389957459 2 0.2617993877991493 2 0.39269908169872403 2 0.5235987755982987 2 
	0.65449846949787349 2 0.78539816339744817 2 0.91629785729702284 2 1.0471975511965976 2 1.1780972450961724 2 
	1.308996938995747 2 1.4398966328953218 2 1.5707963267948966 2 1.7016960206944711 2 1.8325957145940459 2 
	1.9634954084936207 2 2.0943951023931953 2 2.2252947962927703 2 2.3561944901923448 2 2.4870941840919194 2 
	2.6179938779914944 2 2.7488935718910694 2 2.879793265790644 2 3.0106929596902186 2 3.1415926535897931 2 
	0.99999999999999911 0 
	0.99999999999983868 0.060454118752797686 
	0.9999999999998358 0.061511768503883214 
	0.99999999999992162 0.090396009524416371 
	0.99999999999999878 0.11633650601051965 
	0.99999999999956768 0.1422859007480399 
	0.99999999999917544 0.16591068104108106 
	0.99999999999919276 0.16686465521344765 
	0.99999999999999944 0.211324865405187 
	0.99999999999976397 0.2526649145106124 
	0.99999999999975964 0.25342728698445333 
	0.99999999999988309 0.27374551303577294 
	0.99999999999999967 0.29289321881345254 
	0.99999999999981859 0.31204353648808236 
	0.99999999999964606 0.33027287056841159 
	0.99999999999965317 0.33099382530217542 
	0.99999999999999944 0.36602540378443876 
	0.99999999999993927 0.39989408386453457 
	0.99999999999993805 0.40054381631017921 
	0.99999999999961697 0.41754054273999253 
	0.99999999999930289 0.4341737512063335 
	0.9999999999996434 0.45080758563555945 
	0.99999999999997979 0.46722826859238192 
	0.99999999999998013 0.46786655501001884 
	0.99999999999999922 0.5 
	0.99999999999998024 0.53213344498998105 
	0.9999999999999799 0.53277173140761802 
	0.99999999999964384 0.54919241436444055 
	0.99999999999930356 0.5658262487936665 
	0.9999999999996172 0.58245945726000747 
	0.99999999999993761 0.5994561836898209 
	0.99999999999993883 0.6001059161354656 
	0.99999999999999878 0.6339745962155614 
	0.99999999999965317 0.66900617469782475 
	0.99999999999964617 0.66972712943158852 
	0.99999999999981826 0.68795646351191797 
	0.999999999999999 0.70710678118654768 
	0.99999999999988298 0.72625448696422723 
	0.99999999999975975 0.74657271301554662 
	0.99999999999976408 0.74733508548938754 
	0.99999999999999922 0.78867513459481298 
	0.99999999999919253 0.8331353447865526 
	0.99999999999917522 0.83408931895891913 
	0.9999999999995679 0.85771409925196029 
	0.99999999999999922 0.88366349398948052 
	0.99999999999992195 0.90960399047558393 
	0.99999999999983558 0.93848823149611693 
	0.99999999999983824 0.9395458812472024 
	0.99999999999999911 1 
	0.001 
	0.01390610549839888 
	spline forward { ref 0 } I I I I 
	} 0 0 #
-26 pcurve $-1 -1 -1 $-1 0 forward { exppc nubs 1 open 2 
	0 1 1 1 
	0 -1.403894016904138e-33 
	0.99999999999999911 0 
	0.001 
	-1 
	spline forward { ref 1 } I I I I 
	} 0 0 #
-27 vertex $-1 -1 -1 $-1 $21 $35 #
-28 vertex $-1 -1 -1 $-1 $24 $36 #
-29 intcurve-curve $-1 -1 -1 $-1 forward { exactcur full nubs 3 open 31 
	0 3 0.0051229766901793889 1 0.0072455041407893939 1 0.012553143953627846 1 0.053895947439171192 1 
	0.079505637355757455 1 0.1171326037886862 1 0.15242398574504801 1 0.18829491639289039 1 0.22542813997749733 1 
	0.26379871227053264 1 0.30373442449258065 1 0.34524103949150259 1 0.38803304057489735 1 0.431652730751442 1 
	0.47593157801365416 1 0.5206275226339242 1 0.56576766054766658 1 0.61137836915331001 1 0.65766153941896233 1 
	0.70495592683987907 1 0.75342681216272078 1 0.80265889673174973 1 0.85260517190473106 1 0.90356605956655445 1 
	0.95427467527604037 1 0.95867833312185735 1 0.96918154825098568 1 0.97588099203971213 1 0.98470189724707369 1 
	1 3 
	0 20.000000000000004 0 
	0.094286704949797212 19.999796183991851 0 
	0.22763795838074541 19.999510730632053 0 
	0.45867197869671078 19.99830568438388 0 
	1.3562912192605645 19.990229381989099 0 
	2.6858296690798933 19.949094097775991 0 
	4.6070213137235028 19.82985375943894 0 
	6.4131445781519769 19.66478417792775 0 
	8.4001905282569318 19.416584127523393 0 
	10.369383344680132 19.10688240207222 0 
	12.383424681200548 18.724173889225263 0 
	14.457250326931639 18.261083661993709 0 
	16.593190096416411 17.71193430498619 0 
	18.788669487690711 17.072201010084473 0 
	21.027381184984577 16.342651197089364 0 
	23.29067356457379 15.527549104264317 0 
	25.561523466660017 14.633202910268171 0 
	27.831984173600699 13.664237587522885 0 
	30.097905609143073 12.624521917243621 0 
	32.362788709241848 11.514507320602981 0 
	34.635183020849169 10.33147842649913 0 
	36.925526503191016 9.070487733013282 0 
	39.233987618209177 7.7312798775989986 0 
	41.554821447856661 6.3174083536183172 0 
	43.884809175820337 4.8316152927913789 0 
	46.20779792778886 3.2853215349163771 0 
	47.812572087982289 2.1734433589874262 0 
	48.798633159373935 1.4762598423766722 0 
	49.122745166214536 1.2458603571727407 0 
	49.512287217925881 0.96719172753427274 0 
	49.972826217199973 0.63609237580808276 0 
	50.33185157932671 0.37503317279767695 0 
	50.559572673401753 0.20944964138442515 0 
	0 
	null_surface 
	null_surface 
	nullbs 
	nullbs 
	-1 
	-1 
	I I 
	0 
	0 
	29 0.0051229766901793889 0.0072455041407893939 0.012553143953627846 0.053895947439171192 0.079505637355757455 0.1171326037886862 0.15242398574504801 0.18829491639289039 0.22542813997749733 0.26379871227053264 0.30373442449258065 0.34524103949150259 0.38803304057489735 0.431652730751442 0.47593157801365416 0.5206275226339242 0.56576766054766658 0.61137836915331001 0.65766153941896233 0.70495592683987907 0.75342681216272078 0.80265889673174973 0.85260517190473106 0.90356605956655445 0.95427467527604037 0.95867833312185735 0.96918154825098568 0.97588099203971213 0.98470189724707369 
	
	-1 
	none F F 1 F 0 } I I #
-30 edge $-1 -1 -1 $-1 $28 -3.1415926535897931 $32 -1.224646799147353e-16 $20 $37 forward @7 unknown F #
-31 pcurve $-1 -1 -1 $-1 0 forward { exppc nubs 2 open 25 
	-3.1415926535897931 2 -3.0106929596902186 2 -2.879793265790644 2 -2.7488935718910694 2 -2.6179938779914944 2 
	-2.4870941840919194 2 -2.3561944901923448 2 -2.2252947962927703 2 -2.0943951023931957 2 -1.9634954084936209 2 
	-1.8325957145940461 2 -1.7016960206944713 2 -1.5707963267948966 2 -1.439896632895322 2 -1.3089969389957472 2 
	-1.1780972450961724 2 -1.0471975511965979 2 -0.91629785729702307 2 -0.78539816339744828 2 -0.65449846949787349 2 
	-0.52359877559829882 2 -0.39269908169872414 2 -0.26179938779914946 2 -0.13089969389957479 2 -1.224646799147353e-16 2 
	0.99999999999999911 6.123233995736771e-17 
	0.99999999999983868 0.060454118752797673 
	0.9999999999998358 0.0615117685038832 
	0.99999999999992162 0.090396009524416343 
	0.99999999999999878 0.11633650601051961 
	0.99999999999956779 0.14228590074803979 
	0.99999999999917544 0.16591068104108092 
	0.99999999999919276 0.16686465521344754 
	0.99999999999999922 0.21132486540518702 
	0.99999999999976397 0.25266491451061251 
	0.99999999999975964 0.25342728698445344 
	0.99999999999988309 0.27374551303577299 
	0.99999999999999944 0.29289321881345254 
	0.99999999999981859 0.31204353648808236 
	0.9999999999996465 0.33027287056841159 
	0.9999999999996535 0.33099382530217536 
	0.99999999999999911 0.36602540378443849 
	0.99999999999993938 0.39989408386453462 
	0.99999999999993805 0.40054381631017921 
	0.99999999999961708 0.41754054273999258 
	0.99999999999930289 0.4341737512063335 
	0.9999999999996434 0.45080758563555956 
	0.99999999999997957 0.46722826859238192 
	0.9999999999999799 0.46786655501001884 
	0.99999999999999944 0.5 
	0.99999999999997968 0.53213344498998116 
	0.99999999999997935 0.53277173140761813 
	0.99999999999964329 0.54919241436444066 
	0.999999999999303 0.5658262487936665 
	0.99999999999961697 0.58245945726000747 
	0.99999999999993772 0.5994561836898209 
	0.99999999999993894 0.6001059161354656 
	0.99999999999999944 0.63397459621556129 
	0.99999999999965339 0.66900617469782464 
	0.99999999999964628 0.66972712943158841 
	0.99999999999981859 0.68795646351191764 
	0.99999999999999989 0.70710678118654757 
	0.9999999999998832 0.72625448696422712 
	0.99999999999975964 0.74657271301554673 
	0.99999999999976397 0.74733508548938765 
	0.99999999999999944 0.78867513459481287 
	0.99999999999919276 0.83313534478655249 
	0.99999999999917544 0.83408931895891902 
	0.9999999999995679 0.85771409925196029 
	0.999999999999999 0.88366349398948041 
	0.99999999999992184 0.90960399047558382 
	0.99999999999983569 0.93848823149611682 
	0.99999999999983857 0.93954588124720251 
	0.99999999999999911 1 
	0.001 
	0.013906105498398838 
	spline forward { ref 1 } I I I I 
	} 0 0 #
-32 vertex $-1 -1 -1 $-1 $21 $38 #
-33 intcurve-curve $-1 -1 -1 $-1 forward { exactcur full nubs 3 open 31 
	0 3 0.0051229766901793889 1 0.0072455041407893939 1 0.012553143953627846 1 0.053895947439171192 1 
	0.079505637355757455 1 0.1171326037886862 1 0.15242398574504801 1 0.18829491639289039 1 0.22542813997749733 1 
	0.26379871227053264 1 0.30373442449258065 1 0.34524103949150259 1 0.38803304057489735 1 0.431652730751442 1 
	0.47593157801365416 1 0.5206275226339242 1 0.56576766054766658 1 0.61137836915331001 1 0.65766153941896233 1 
	0.70495592683987907 1 0.75342681216272078 1 0.80265889673174973 1 0.85260517190473106 1 0.90356605956655445 1 
	0.95427467527604037 1 0.95867833312185735 1 0.96918154825098568 1 0.97588099203971213 1 0.98470189724707369 1 
	1 3 
	0 20.000000000000004 0 
	-0.094286704949934422 19.999796183991851 -1.1546791141900408e-17 
	-0.22763795838088263 19.999510730632053 -2.7877609709550229e-17 
	-0.45867197869684795 19.998305684383876 -5.6171117056959376e-17 
	-1.3562912192607015 19.990229381989089 -1.6609777003791952e-16 
	-2.6858296690800305 19.949094097775973 -3.2891927072937701e-16 
	-4.6070213137236395 19.829853759438908 -5.6419739054552064e-16 
	-6.4131445781521119 19.664784177927704 -7.8538369801031045e-16 
	-8.400190528257065 19.416584127523333 -1.0287266442657845e-15 
	-10.369383344680264 19.106882402072145 -1.269883212219448e-15 
	-12.383424681200676 18.724173889225181 -1.5165321398314662e-15 
	-14.457250326931764 18.261083661993606 -1.7705025337348935e-15 
	-16.593190096416532 17.711934304986077 -2.0320797139219992e-15 
	-18.788669487690829 17.072201010084346 -2.3009483948338043e-15 
	-21.027381184984687 16.342651197089218 -2.575111506264271e-15 
	-23.2906735645739 15.527549104264159 -2.8522848830841233e-15 
	-25.561523466660116 14.633202910267997 -3.1303837894775204e-15 
	-27.831984173600791 13.664237587522695 -3.4084350332119946e-15 
	-30.097905609143162 12.624521917243415 -3.6859303765276286e-15 
	-32.362788709241926 11.514507320602759 -3.9632985604255177e-15 
	-34.63518302084924 10.331478426498892 -4.2415866024365738e-15 
	-36.92552650319108 9.0704877330130298 -4.5220727838963678e-15 
	-39.233987618209234 7.7312798775987295 -4.8047777354426791e-15 
	-41.554821447856703 6.3174083536180312 -5.0889979075257465e-15 
	-43.884809175820372 4.8316152927910778 -5.3743391088360798e-15 
	-46.207797927788882 3.28532153491606 -5.6588231827914341e-15 
	-47.812572087982296 2.1734433589870985 -5.8553513366549597e-15 
	-48.798633159373942 1.4762598423763376 -5.9761089901393193e-15 
	-49.122745166214543 1.2458603571724038 -6.0158012633135757e-15 
	-49.512287217925888 0.96719172753393312 -6.0635064059897353e-15 
	-49.97282621719998 0.63609237580773992 -6.119906167124088e-15 
	-50.33185157932671 0.37503317279733162 -6.1638740931782107e-15 
	-50.559572673401753 0.20944964138407826 -6.1917618840739443e-15 
	0 
	null_surface 
	null_surface 
	nullbs 
	nullbs 
	-1 
	-1 
	I I 
	0 
	0 
	29 0.0051229766901793889 0.0072455041407893939 0.012553143953627846 0.053895947439171192 0.079505637355757455 0.1171326037886862 0.15242398574504801 0.18829491639289039 0.22542813997749733 0.26379871227053264 0.30373442449258065 0.34524103949150259 0.38803304057489735 0.431652730751442 0.47593157801365416 0.5206275226339242 0.56576766054766658 0.61137836915331001 0.65766153941896233 0.70495592683987907 0.75342681216272078 0.80265889673174973 0.85260517190473106 0.90356605956655445 0.95427467527604037 0.95867833312185735 0.96918154825098568 0.97588099203971213 0.98470189724707369 
	
	-1 
	none F F 1 F 0 } I I #
-34 ellipse-curve $-1 -1 -1 $-1 -7.1846442267571624e-16 0.20944964138425171 0 -3.430248998885767e-15 1 0 -50.559572673401753 -1.7344524254336857e-13 0 1 I I #
-35 point $-1 -1 -1 $-1 0 20.000000000000004 0 #
-36 point $-1 -1 -1 $-1 50.559572673401753 0.20944964138442515 0 #
-37 ellipse-curve $-1 -1 -1 $-1 -7.1846442267571624e-16 0.20944964138425171 0 -3.430248998885767e-15 1 0 -50.559572673401753 -1.7344524254336857e-13 0 1 I I #
-38 point $-1 -1 -1 $-1 -50.559572673401753 0.20944964138407826 -6.1917618840739443e-15 #
End-of-ACIS-data 